<mxfile host="Electron" agent="Mozilla/5.0 (Windows NT 10.0; Win64; x64) AppleWebKit/537.36 (KHTML, like Gecko) draw.io/24.7.17 Chrome/128.0.6613.36 Electron/32.0.1 Safari/537.36" version="24.7.17" pages="5">
  <diagram id="1pLTDmehJAElt2BbKVnJ" name="Components Overview">
    <mxGraphModel dx="2526" dy="1253" grid="1" gridSize="10" guides="1" tooltips="1" connect="1" arrows="1" fold="1" page="1" pageScale="1" pageWidth="850" pageHeight="1100" math="0" shadow="0">
      <root>
        <mxCell id="0" />
        <mxCell id="1" parent="0" />
        <mxCell id="soFWlBaqVEX_TAnJUe-j-11" value="CosmicShore.PlayFabIntergrations" style="swimlane;whiteSpace=wrap;html=1;startSize=23;fillColor=#ffe6cc;strokeColor=#d79b00;" parent="1" vertex="1">
          <mxGeometry x="880" y="420" width="690" height="350" as="geometry" />
        </mxCell>
        <mxCell id="soFWlBaqVEX_TAnJUe-j-12" value="CSAuthenticationPlayFab" style="rounded=1;whiteSpace=wrap;html=1;" parent="soFWlBaqVEX_TAnJUe-j-11" vertex="1">
          <mxGeometry x="260" y="40" width="200" height="30" as="geometry" />
        </mxCell>
        <mxCell id="soFWlBaqVEX_TAnJUe-j-18" value="CSEconomyPlayFab" style="rounded=1;whiteSpace=wrap;html=1;" parent="soFWlBaqVEX_TAnJUe-j-11" vertex="1">
          <mxGeometry x="260" y="140" width="200" height="30" as="geometry" />
        </mxCell>
        <mxCell id="soFWlBaqVEX_TAnJUe-j-19" value="CSContentPlayFab" style="rounded=1;whiteSpace=wrap;html=1;" parent="soFWlBaqVEX_TAnJUe-j-11" vertex="1">
          <mxGeometry x="260" y="90" width="200" height="30" as="geometry" />
        </mxCell>
        <mxCell id="soFWlBaqVEX_TAnJUe-j-25" value="CSPlayerDataPlayFab" style="rounded=1;whiteSpace=wrap;html=1;" parent="soFWlBaqVEX_TAnJUe-j-11" vertex="1">
          <mxGeometry x="260" y="240" width="200" height="30" as="geometry" />
        </mxCell>
        <mxCell id="_6HGgYS4Jvbz8rckhgu2-9" value="CSEconomyPlayFab" style="rounded=1;whiteSpace=wrap;html=1;" vertex="1" parent="soFWlBaqVEX_TAnJUe-j-11">
          <mxGeometry x="260" y="190" width="200" height="30" as="geometry" />
        </mxCell>
        <mxCell id="soFWlBaqVEX_TAnJUe-j-4" value="CosmicShore.BackEnd" style="swimlane;whiteSpace=wrap;html=1;fillColor=#CCCCCC;" parent="1" vertex="1">
          <mxGeometry x="150" y="420" width="660" height="350" as="geometry" />
        </mxCell>
        <mxCell id="soFWlBaqVEX_TAnJUe-j-3" value="CSAuthenticationInterfaces" style="rounded=1;whiteSpace=wrap;html=1;" parent="soFWlBaqVEX_TAnJUe-j-4" vertex="1">
          <mxGeometry x="220" y="40" width="200" height="25" as="geometry" />
        </mxCell>
        <mxCell id="_6HGgYS4Jvbz8rckhgu2-14" style="edgeStyle=orthogonalEdgeStyle;rounded=0;orthogonalLoop=1;jettySize=auto;html=1;entryX=0;entryY=0.5;entryDx=0;entryDy=0;" edge="1" parent="soFWlBaqVEX_TAnJUe-j-4" source="soFWlBaqVEX_TAnJUe-j-1" target="soFWlBaqVEX_TAnJUe-j-3">
          <mxGeometry relative="1" as="geometry" />
        </mxCell>
        <mxCell id="_6HGgYS4Jvbz8rckhgu2-15" style="edgeStyle=orthogonalEdgeStyle;rounded=0;orthogonalLoop=1;jettySize=auto;html=1;entryX=0;entryY=0.5;entryDx=0;entryDy=0;" edge="1" parent="soFWlBaqVEX_TAnJUe-j-4" source="soFWlBaqVEX_TAnJUe-j-1" target="soFWlBaqVEX_TAnJUe-j-14">
          <mxGeometry relative="1" as="geometry" />
        </mxCell>
        <mxCell id="_6HGgYS4Jvbz8rckhgu2-16" style="edgeStyle=orthogonalEdgeStyle;rounded=0;orthogonalLoop=1;jettySize=auto;html=1;entryX=0;entryY=0.5;entryDx=0;entryDy=0;" edge="1" parent="soFWlBaqVEX_TAnJUe-j-4" source="soFWlBaqVEX_TAnJUe-j-1" target="soFWlBaqVEX_TAnJUe-j-13">
          <mxGeometry relative="1" as="geometry" />
        </mxCell>
        <mxCell id="_6HGgYS4Jvbz8rckhgu2-17" style="edgeStyle=orthogonalEdgeStyle;rounded=0;orthogonalLoop=1;jettySize=auto;html=1;entryX=0;entryY=0.5;entryDx=0;entryDy=0;" edge="1" parent="soFWlBaqVEX_TAnJUe-j-4" source="soFWlBaqVEX_TAnJUe-j-1" target="soFWlBaqVEX_TAnJUe-j-28">
          <mxGeometry relative="1" as="geometry" />
        </mxCell>
        <mxCell id="_6HGgYS4Jvbz8rckhgu2-18" style="edgeStyle=orthogonalEdgeStyle;rounded=0;orthogonalLoop=1;jettySize=auto;html=1;entryX=0;entryY=0.5;entryDx=0;entryDy=0;" edge="1" parent="soFWlBaqVEX_TAnJUe-j-4" source="soFWlBaqVEX_TAnJUe-j-1" target="soFWlBaqVEX_TAnJUe-j-15">
          <mxGeometry relative="1" as="geometry" />
        </mxCell>
        <mxCell id="_6HGgYS4Jvbz8rckhgu2-19" style="edgeStyle=orthogonalEdgeStyle;rounded=0;orthogonalLoop=1;jettySize=auto;html=1;entryX=0;entryY=0.5;entryDx=0;entryDy=0;" edge="1" parent="soFWlBaqVEX_TAnJUe-j-4" source="soFWlBaqVEX_TAnJUe-j-1" target="soFWlBaqVEX_TAnJUe-j-24">
          <mxGeometry relative="1" as="geometry" />
        </mxCell>
        <mxCell id="soFWlBaqVEX_TAnJUe-j-1" value="CSBackendInterfaces" style="rounded=1;whiteSpace=wrap;html=1;" parent="soFWlBaqVEX_TAnJUe-j-4" vertex="1">
          <mxGeometry x="20" y="127.5" width="130" height="32.5" as="geometry" />
        </mxCell>
        <mxCell id="soFWlBaqVEX_TAnJUe-j-13" value="CSEconomyInterfaces" style="rounded=1;whiteSpace=wrap;html=1;" parent="soFWlBaqVEX_TAnJUe-j-4" vertex="1">
          <mxGeometry x="220" y="117.5" width="200" height="25" as="geometry" />
        </mxCell>
        <mxCell id="soFWlBaqVEX_TAnJUe-j-14" value="CSContentInterfaces" style="rounded=1;whiteSpace=wrap;html=1;" parent="soFWlBaqVEX_TAnJUe-j-4" vertex="1">
          <mxGeometry x="220" y="80" width="200" height="25" as="geometry" />
        </mxCell>
        <mxCell id="soFWlBaqVEX_TAnJUe-j-15" value="CSPlayerDataInterfaces" style="rounded=1;whiteSpace=wrap;html=1;" parent="soFWlBaqVEX_TAnJUe-j-4" vertex="1">
          <mxGeometry x="220" y="200" width="200" height="25" as="geometry" />
        </mxCell>
        <mxCell id="soFWlBaqVEX_TAnJUe-j-22" value="CSMultiplayerInterfaces" style="rounded=1;whiteSpace=wrap;html=1;dashed=1;dashPattern=12 12;" parent="soFWlBaqVEX_TAnJUe-j-4" vertex="1">
          <mxGeometry x="220" y="280" width="200" height="30" as="geometry" />
        </mxCell>
        <mxCell id="soFWlBaqVEX_TAnJUe-j-24" value="CSCloudScriptInterfaces" style="rounded=1;whiteSpace=wrap;html=1;" parent="soFWlBaqVEX_TAnJUe-j-4" vertex="1">
          <mxGeometry x="220" y="240" width="200" height="25" as="geometry" />
        </mxCell>
        <mxCell id="soFWlBaqVEX_TAnJUe-j-28" value="CSPlayerInventoryInterfaces" style="rounded=1;whiteSpace=wrap;html=1;" parent="soFWlBaqVEX_TAnJUe-j-4" vertex="1">
          <mxGeometry x="220" y="160" width="200" height="25" as="geometry" />
        </mxCell>
        <mxCell id="soFWlBaqVEX_TAnJUe-j-5" value="CosmicShore.ConsoleCommand" style="swimlane;whiteSpace=wrap;html=1;fillColor=#dae8fc;strokeColor=#6c8ebf;" parent="1" vertex="1">
          <mxGeometry x="150" y="90" width="660" height="300" as="geometry" />
        </mxCell>
        <mxCell id="_6HGgYS4Jvbz8rckhgu2-21" style="edgeStyle=orthogonalEdgeStyle;rounded=0;orthogonalLoop=1;jettySize=auto;html=1;entryX=0;entryY=0.5;entryDx=0;entryDy=0;" edge="1" parent="soFWlBaqVEX_TAnJUe-j-5" source="soFWlBaqVEX_TAnJUe-j-6" target="soFWlBaqVEX_TAnJUe-j-7">
          <mxGeometry relative="1" as="geometry" />
        </mxCell>
        <mxCell id="_6HGgYS4Jvbz8rckhgu2-22" style="edgeStyle=orthogonalEdgeStyle;rounded=0;orthogonalLoop=1;jettySize=auto;html=1;entryX=0;entryY=0.5;entryDx=0;entryDy=0;" edge="1" parent="soFWlBaqVEX_TAnJUe-j-5" source="soFWlBaqVEX_TAnJUe-j-6" target="soFWlBaqVEX_TAnJUe-j-9">
          <mxGeometry relative="1" as="geometry" />
        </mxCell>
        <mxCell id="_6HGgYS4Jvbz8rckhgu2-23" style="edgeStyle=orthogonalEdgeStyle;rounded=0;orthogonalLoop=1;jettySize=auto;html=1;entryX=0;entryY=0.5;entryDx=0;entryDy=0;" edge="1" parent="soFWlBaqVEX_TAnJUe-j-5" source="soFWlBaqVEX_TAnJUe-j-6" target="soFWlBaqVEX_TAnJUe-j-8">
          <mxGeometry relative="1" as="geometry" />
        </mxCell>
        <mxCell id="_6HGgYS4Jvbz8rckhgu2-24" style="edgeStyle=orthogonalEdgeStyle;rounded=0;orthogonalLoop=1;jettySize=auto;html=1;entryX=0;entryY=0.5;entryDx=0;entryDy=0;" edge="1" parent="soFWlBaqVEX_TAnJUe-j-5" source="soFWlBaqVEX_TAnJUe-j-6" target="soFWlBaqVEX_TAnJUe-j-29">
          <mxGeometry relative="1" as="geometry" />
        </mxCell>
        <mxCell id="_6HGgYS4Jvbz8rckhgu2-30" style="edgeStyle=orthogonalEdgeStyle;rounded=0;orthogonalLoop=1;jettySize=auto;html=1;entryX=0;entryY=0.5;entryDx=0;entryDy=0;" edge="1" parent="soFWlBaqVEX_TAnJUe-j-5" source="soFWlBaqVEX_TAnJUe-j-6" target="soFWlBaqVEX_TAnJUe-j-10">
          <mxGeometry relative="1" as="geometry" />
        </mxCell>
        <mxCell id="soFWlBaqVEX_TAnJUe-j-6" value="CSConsoleCommandInterfaces" style="rounded=1;whiteSpace=wrap;html=1;" parent="soFWlBaqVEX_TAnJUe-j-5" vertex="1">
          <mxGeometry x="10" y="125" width="190" height="30" as="geometry" />
        </mxCell>
        <mxCell id="soFWlBaqVEX_TAnJUe-j-7" value="CSAuthenticationCommands" style="rounded=1;whiteSpace=wrap;html=1;" parent="soFWlBaqVEX_TAnJUe-j-5" vertex="1">
          <mxGeometry x="245" y="40" width="170" height="30" as="geometry" />
        </mxCell>
        <mxCell id="soFWlBaqVEX_TAnJUe-j-8" value="CSEconomyCommands" style="rounded=1;whiteSpace=wrap;html=1;" parent="soFWlBaqVEX_TAnJUe-j-5" vertex="1">
          <mxGeometry x="245" y="125" width="170" height="30" as="geometry" />
        </mxCell>
        <mxCell id="soFWlBaqVEX_TAnJUe-j-9" value="CSContentCommands" style="rounded=1;whiteSpace=wrap;html=1;" parent="soFWlBaqVEX_TAnJUe-j-5" vertex="1">
          <mxGeometry x="245" y="80" width="170" height="30" as="geometry" />
        </mxCell>
        <mxCell id="soFWlBaqVEX_TAnJUe-j-10" value="CSPlayerDataCommands" style="rounded=1;whiteSpace=wrap;html=1;" parent="soFWlBaqVEX_TAnJUe-j-5" vertex="1">
          <mxGeometry x="245" y="210" width="170" height="30" as="geometry" />
        </mxCell>
        <mxCell id="soFWlBaqVEX_TAnJUe-j-20" value="CSMultiplayerCommands" style="rounded=1;whiteSpace=wrap;html=1;dashed=1;dashPattern=12 12;" parent="soFWlBaqVEX_TAnJUe-j-5" vertex="1">
          <mxGeometry x="245" y="250" width="170" height="30" as="geometry" />
        </mxCell>
        <mxCell id="soFWlBaqVEX_TAnJUe-j-29" value="CSPlayerInventoryCommands" style="rounded=1;whiteSpace=wrap;html=1;" parent="soFWlBaqVEX_TAnJUe-j-5" vertex="1">
          <mxGeometry x="245" y="170" width="170" height="30" as="geometry" />
        </mxCell>
        <mxCell id="soFWlBaqVEX_TAnJUe-j-17" value="Plan a multiplayer interface for future implementations (after alpha build delivery)" style="shape=callout;whiteSpace=wrap;html=1;perimeter=calloutPerimeter;fillColor=#dae8fc;strokeColor=#6c8ebf;" parent="1" vertex="1">
          <mxGeometry x="10" y="90" width="120" height="130" as="geometry" />
        </mxCell>
        <mxCell id="soFWlBaqVEX_TAnJUe-j-21" value="PlayFab has a really detailed sections for managing player&#39;s actions. For now the most access section is Player Data. Having one manager responsible for CRUD operations for the player would be nice." style="shape=callout;whiteSpace=wrap;html=1;perimeter=calloutPerimeter;fillColor=#f8cecc;strokeColor=#b85450;" parent="1" vertex="1">
          <mxGeometry x="10" y="420" width="120" height="200" as="geometry" />
        </mxCell>
        <mxCell id="soFWlBaqVEX_TAnJUe-j-23" value="Factions, groups are not alpha build targets. Revisit them later." style="shape=callout;whiteSpace=wrap;html=1;perimeter=calloutPerimeter;fillColor=#d5e8d4;strokeColor=#82b366;" parent="1" vertex="1">
          <mxGeometry x="10" y="240" width="120" height="130" as="geometry" />
        </mxCell>
        <mxCell id="soFWlBaqVEX_TAnJUe-j-27" value="CosmicShore.Functions" style="swimlane;whiteSpace=wrap;html=1;fillColor=#e1d5e7;strokeColor=#9673a6;" parent="1" vertex="1">
          <mxGeometry x="880" y="820" width="690" height="200" as="geometry" />
        </mxCell>
        <mxCell id="_6HGgYS4Jvbz8rckhgu2-3" value="CSDailyReward" style="rounded=1;whiteSpace=wrap;html=1;" vertex="1" parent="soFWlBaqVEX_TAnJUe-j-27">
          <mxGeometry x="295" y="40" width="200" height="30" as="geometry" />
        </mxCell>
        <mxCell id="_6HGgYS4Jvbz8rckhgu2-41" style="edgeStyle=orthogonalEdgeStyle;rounded=0;orthogonalLoop=1;jettySize=auto;html=1;entryX=0;entryY=0.5;entryDx=0;entryDy=0;" edge="1" parent="soFWlBaqVEX_TAnJUe-j-27" source="_6HGgYS4Jvbz8rckhgu2-4" target="_6HGgYS4Jvbz8rckhgu2-3">
          <mxGeometry relative="1" as="geometry" />
        </mxCell>
        <mxCell id="_6HGgYS4Jvbz8rckhgu2-42" style="edgeStyle=orthogonalEdgeStyle;rounded=0;orthogonalLoop=1;jettySize=auto;html=1;entryX=0;entryY=0.5;entryDx=0;entryDy=0;" edge="1" parent="soFWlBaqVEX_TAnJUe-j-27" source="_6HGgYS4Jvbz8rckhgu2-4" target="_6HGgYS4Jvbz8rckhgu2-5">
          <mxGeometry relative="1" as="geometry" />
        </mxCell>
        <mxCell id="_6HGgYS4Jvbz8rckhgu2-45" style="edgeStyle=orthogonalEdgeStyle;rounded=0;orthogonalLoop=1;jettySize=auto;html=1;entryX=0;entryY=0.5;entryDx=0;entryDy=0;" edge="1" parent="soFWlBaqVEX_TAnJUe-j-27" source="_6HGgYS4Jvbz8rckhgu2-4" target="_6HGgYS4Jvbz8rckhgu2-44">
          <mxGeometry relative="1" as="geometry" />
        </mxCell>
        <mxCell id="_6HGgYS4Jvbz8rckhgu2-4" value="CSEconomy" style="rounded=1;whiteSpace=wrap;html=1;" vertex="1" parent="soFWlBaqVEX_TAnJUe-j-27">
          <mxGeometry x="50" y="70" width="200" height="30" as="geometry" />
        </mxCell>
        <mxCell id="_6HGgYS4Jvbz8rckhgu2-5" value="CSDailyChallenge" style="rounded=1;whiteSpace=wrap;html=1;" vertex="1" parent="soFWlBaqVEX_TAnJUe-j-27">
          <mxGeometry x="295" y="90" width="200" height="30" as="geometry" />
        </mxCell>
        <mxCell id="_6HGgYS4Jvbz8rckhgu2-44" value="CSPlayerInventory" style="rounded=1;whiteSpace=wrap;html=1;dashed=1;dashPattern=1 2;" vertex="1" parent="soFWlBaqVEX_TAnJUe-j-27">
          <mxGeometry x="295" y="140" width="200" height="30" as="geometry" />
        </mxCell>
        <mxCell id="_6HGgYS4Jvbz8rckhgu2-1" value="CSCloudScriptInterfaces is a bit tricky to add as part of the backend service interfaces. It is part of the PlayFab automation API. To execute customizable functions from Cosmic Shore client requests, the component will use many other APIs from PlayFab." style="shape=callout;whiteSpace=wrap;html=1;perimeter=calloutPerimeter;fillColor=#e1d5e7;strokeColor=#9673a6;" vertex="1" parent="1">
          <mxGeometry x="360" y="780" width="210" height="170" as="geometry" />
        </mxCell>
        <mxCell id="_6HGgYS4Jvbz8rckhgu2-33" style="edgeStyle=orthogonalEdgeStyle;rounded=0;orthogonalLoop=1;jettySize=auto;html=1;entryX=0.651;entryY=0.036;entryDx=0;entryDy=0;entryPerimeter=0;" edge="1" parent="1" source="soFWlBaqVEX_TAnJUe-j-6" target="soFWlBaqVEX_TAnJUe-j-1">
          <mxGeometry relative="1" as="geometry" />
        </mxCell>
        <mxCell id="_6HGgYS4Jvbz8rckhgu2-34" style="edgeStyle=orthogonalEdgeStyle;rounded=0;orthogonalLoop=1;jettySize=auto;html=1;entryX=0;entryY=0.5;entryDx=0;entryDy=0;" edge="1" parent="1" source="soFWlBaqVEX_TAnJUe-j-3" target="soFWlBaqVEX_TAnJUe-j-12">
          <mxGeometry relative="1" as="geometry" />
        </mxCell>
        <mxCell id="_6HGgYS4Jvbz8rckhgu2-35" style="edgeStyle=orthogonalEdgeStyle;rounded=0;orthogonalLoop=1;jettySize=auto;html=1;" edge="1" parent="1" source="soFWlBaqVEX_TAnJUe-j-14" target="soFWlBaqVEX_TAnJUe-j-19">
          <mxGeometry relative="1" as="geometry" />
        </mxCell>
        <mxCell id="_6HGgYS4Jvbz8rckhgu2-36" style="edgeStyle=orthogonalEdgeStyle;rounded=0;orthogonalLoop=1;jettySize=auto;html=1;entryX=0;entryY=0.5;entryDx=0;entryDy=0;" edge="1" parent="1" source="soFWlBaqVEX_TAnJUe-j-13" target="soFWlBaqVEX_TAnJUe-j-18">
          <mxGeometry relative="1" as="geometry" />
        </mxCell>
        <mxCell id="_6HGgYS4Jvbz8rckhgu2-37" style="edgeStyle=orthogonalEdgeStyle;rounded=0;orthogonalLoop=1;jettySize=auto;html=1;entryX=0;entryY=0.5;entryDx=0;entryDy=0;" edge="1" parent="1" source="soFWlBaqVEX_TAnJUe-j-28" target="_6HGgYS4Jvbz8rckhgu2-9">
          <mxGeometry relative="1" as="geometry" />
        </mxCell>
        <mxCell id="_6HGgYS4Jvbz8rckhgu2-38" style="edgeStyle=orthogonalEdgeStyle;rounded=0;orthogonalLoop=1;jettySize=auto;html=1;entryX=0;entryY=0.5;entryDx=0;entryDy=0;" edge="1" parent="1" source="soFWlBaqVEX_TAnJUe-j-15" target="soFWlBaqVEX_TAnJUe-j-25">
          <mxGeometry relative="1" as="geometry" />
        </mxCell>
        <mxCell id="_6HGgYS4Jvbz8rckhgu2-39" style="edgeStyle=orthogonalEdgeStyle;rounded=0;orthogonalLoop=1;jettySize=auto;html=1;entryX=0;entryY=0.5;entryDx=0;entryDy=0;" edge="1" parent="1" source="soFWlBaqVEX_TAnJUe-j-24" target="soFWlBaqVEX_TAnJUe-j-27">
          <mxGeometry relative="1" as="geometry" />
        </mxCell>
        <mxCell id="_6HGgYS4Jvbz8rckhgu2-40" value="Console Command is using Spectre Console Framework" style="shape=callout;whiteSpace=wrap;html=1;perimeter=calloutPerimeter;fillColor=#dae8fc;strokeColor=#6c8ebf;" vertex="1" parent="1">
          <mxGeometry x="840" y="90" width="120" height="130" as="geometry" />
        </mxCell>
        <mxCell id="_6HGgYS4Jvbz8rckhgu2-43" value="The purpose of interfaces are for unit tests." style="shape=callout;whiteSpace=wrap;html=1;perimeter=calloutPerimeter;fillColor=#fff2cc;strokeColor=#d6b656;" vertex="1" parent="1">
          <mxGeometry x="150" y="790" width="120" height="130" as="geometry" />
        </mxCell>
        <mxCell id="_6HGgYS4Jvbz8rckhgu2-46" value="The client API already has inventory operations available. Using Azure Functions is due to the repository is determined to be open-source, it&#39;s prone to cheating if it comes to the free in-game item claims." style="shape=callout;whiteSpace=wrap;html=1;perimeter=calloutPerimeter;fillColor=#f8cecc;strokeColor=#b85450;gradientColor=none;" vertex="1" parent="1">
          <mxGeometry x="1160" y="1040" width="230" height="140" as="geometry" />
        </mxCell>
      </root>
    </mxGraphModel>
  </diagram>
  <diagram id="C5RBs43oDa-KdzZeNtuy" name="Register">
    <mxGraphModel dx="3303" dy="1528" grid="1" gridSize="10" guides="1" tooltips="1" connect="1" arrows="1" fold="1" page="0" pageScale="1" pageWidth="827" pageHeight="1169" background="none" math="0" shadow="1">
      <root>
        <mxCell id="WIyWlLk6GJQsqaUBKTNV-0" />
        <mxCell id="WIyWlLk6GJQsqaUBKTNV-1" parent="WIyWlLk6GJQsqaUBKTNV-0" />
        <mxCell id="eWLW0DKjANRu85NP3hEd-13" value="Register View" style="shape=umlLifeline;perimeter=lifelinePerimeter;whiteSpace=wrap;html=1;container=0;dropTarget=0;collapsible=0;recursiveResize=0;outlineConnect=0;portConstraint=eastwest;newEdgeStyle={&quot;edgeStyle&quot;:&quot;elbowEdgeStyle&quot;,&quot;elbow&quot;:&quot;vertical&quot;,&quot;curved&quot;:0,&quot;rounded&quot;:0};labelBackgroundColor=none;rounded=1;glass=0;" parent="WIyWlLk6GJQsqaUBKTNV-1" vertex="1">
          <mxGeometry x="-310" y="30" width="150" height="490" as="geometry" />
        </mxCell>
        <mxCell id="eWLW0DKjANRu85NP3hEd-14" value="" style="html=1;points=[];perimeter=orthogonalPerimeter;outlineConnect=0;targetShapes=umlLifeline;portConstraint=eastwest;newEdgeStyle={&quot;edgeStyle&quot;:&quot;elbowEdgeStyle&quot;,&quot;elbow&quot;:&quot;vertical&quot;,&quot;curved&quot;:0,&quot;rounded&quot;:0};labelBackgroundColor=none;rounded=1;" parent="eWLW0DKjANRu85NP3hEd-13" vertex="1">
          <mxGeometry x="70" y="75" width="10" height="215" as="geometry" />
        </mxCell>
        <mxCell id="6FJY7qTMQ1HYPNhJQEil-0" value="User Register" style="swimlane;whiteSpace=wrap;html=1;rounded=1;" parent="WIyWlLk6GJQsqaUBKTNV-1" vertex="1">
          <mxGeometry x="-340" y="-20" width="1220" height="590" as="geometry" />
        </mxCell>
        <mxCell id="6FJY7qTMQ1HYPNhJQEil-6" value="Click Register Button" style="html=1;verticalAlign=bottom;endArrow=block;edgeStyle=elbowEdgeStyle;elbow=vertical;curved=0;rounded=1;labelBackgroundColor=none;fontColor=default;" parent="6FJY7qTMQ1HYPNhJQEil-0" source="6FJY7qTMQ1HYPNhJQEil-1" edge="1">
          <mxGeometry relative="1" as="geometry">
            <mxPoint x="-50" y="180" as="sourcePoint" />
            <Array as="points">
              <mxPoint x="110" y="180" />
            </Array>
            <mxPoint x="100" y="180.59" as="targetPoint" />
          </mxGeometry>
        </mxCell>
        <mxCell id="6FJY7qTMQ1HYPNhJQEil-7" value="Enter User info" style="html=1;verticalAlign=bottom;endArrow=block;edgeStyle=elbowEdgeStyle;elbow=vertical;curved=0;rounded=1;labelBackgroundColor=none;fontColor=default;exitX=1;exitY=0.3333333333333333;exitDx=0;exitDy=0;exitPerimeter=0;" parent="6FJY7qTMQ1HYPNhJQEil-0" source="6FJY7qTMQ1HYPNhJQEil-1" edge="1">
          <mxGeometry relative="1" as="geometry">
            <mxPoint x="-190" y="151" as="sourcePoint" />
            <Array as="points">
              <mxPoint x="110" y="150" />
            </Array>
            <mxPoint x="100" y="150.59" as="targetPoint" />
          </mxGeometry>
        </mxCell>
        <mxCell id="eWLW0DKjANRu85NP3hEd-16" value="Register_OnClick(username, password, email)" style="html=1;verticalAlign=bottom;endArrow=block;edgeStyle=elbowEdgeStyle;elbow=vertical;curved=0;rounded=1;labelBackgroundColor=none;fontColor=default;" parent="6FJY7qTMQ1HYPNhJQEil-0" target="i07Y9Q9IVcWRk9iywD31-3" edge="1">
          <mxGeometry relative="1" as="geometry">
            <mxPoint x="110" y="190.12" as="sourcePoint" />
            <Array as="points" />
            <mxPoint x="330" y="190.12" as="targetPoint" />
          </mxGeometry>
        </mxCell>
        <mxCell id="eWLW0DKjANRu85NP3hEd-44" value="Error Message" style="html=1;verticalAlign=bottom;endArrow=block;edgeStyle=elbowEdgeStyle;elbow=vertical;curved=0;rounded=1;labelBackgroundColor=none;fontColor=default;dashed=1;" parent="6FJY7qTMQ1HYPNhJQEil-0" source="hauwbxo6wyQg0NGbvwxD-0" edge="1">
          <mxGeometry relative="1" as="geometry">
            <mxPoint x="330" y="450" as="sourcePoint" />
            <Array as="points" />
            <mxPoint x="110" y="450" as="targetPoint" />
            <mxPoint as="offset" />
          </mxGeometry>
        </mxCell>
        <mxCell id="eWLW0DKjANRu85NP3hEd-43" value="PlayerProfile" style="html=1;verticalAlign=bottom;endArrow=block;edgeStyle=elbowEdgeStyle;elbow=vertical;curved=0;rounded=1;labelBackgroundColor=none;fontColor=default;dashed=1;" parent="6FJY7qTMQ1HYPNhJQEil-0" source="i07Y9Q9IVcWRk9iywD31-3" edge="1">
          <mxGeometry relative="1" as="geometry">
            <mxPoint x="330" y="320" as="sourcePoint" />
            <Array as="points">
              <mxPoint x="200" y="320" />
            </Array>
            <mxPoint x="110" y="320.5" as="targetPoint" />
          </mxGeometry>
        </mxCell>
        <mxCell id="i07Y9Q9IVcWRk9iywD31-2" value="Authentication Manager" style="shape=umlLifeline;perimeter=lifelinePerimeter;whiteSpace=wrap;html=1;container=0;dropTarget=0;collapsible=0;recursiveResize=0;outlineConnect=0;portConstraint=eastwest;newEdgeStyle={&quot;edgeStyle&quot;:&quot;elbowEdgeStyle&quot;,&quot;elbow&quot;:&quot;vertical&quot;,&quot;curved&quot;:0,&quot;rounded&quot;:0};labelBackgroundColor=none;rounded=1;glass=0;" parent="6FJY7qTMQ1HYPNhJQEil-0" vertex="1">
          <mxGeometry x="280" y="50" width="150" height="490" as="geometry" />
        </mxCell>
        <mxCell id="i07Y9Q9IVcWRk9iywD31-3" value="" style="html=1;points=[];perimeter=orthogonalPerimeter;outlineConnect=0;targetShapes=umlLifeline;portConstraint=eastwest;newEdgeStyle={&quot;edgeStyle&quot;:&quot;elbowEdgeStyle&quot;,&quot;elbow&quot;:&quot;vertical&quot;,&quot;curved&quot;:0,&quot;rounded&quot;:0};labelBackgroundColor=none;rounded=1;" parent="i07Y9Q9IVcWRk9iywD31-2" vertex="1">
          <mxGeometry x="70" y="75" width="10" height="225" as="geometry" />
        </mxCell>
        <mxCell id="hauwbxo6wyQg0NGbvwxD-0" value="" style="html=1;points=[];perimeter=orthogonalPerimeter;outlineConnect=0;targetShapes=umlLifeline;portConstraint=eastwest;newEdgeStyle={&quot;edgeStyle&quot;:&quot;elbowEdgeStyle&quot;,&quot;elbow&quot;:&quot;vertical&quot;,&quot;curved&quot;:0,&quot;rounded&quot;:0};labelBackgroundColor=none;rounded=1;" vertex="1" parent="i07Y9Q9IVcWRk9iywD31-2">
          <mxGeometry x="70" y="350" width="10" height="80" as="geometry" />
        </mxCell>
        <mxCell id="i07Y9Q9IVcWRk9iywD31-6" value="Authentication Service" style="shape=umlLifeline;perimeter=lifelinePerimeter;whiteSpace=wrap;html=1;container=0;dropTarget=0;collapsible=0;recursiveResize=0;outlineConnect=0;portConstraint=eastwest;newEdgeStyle={&quot;edgeStyle&quot;:&quot;elbowEdgeStyle&quot;,&quot;elbow&quot;:&quot;vertical&quot;,&quot;curved&quot;:0,&quot;rounded&quot;:0};labelBackgroundColor=none;rounded=1;" parent="6FJY7qTMQ1HYPNhJQEil-0" vertex="1">
          <mxGeometry x="470" y="50" width="100" height="310" as="geometry" />
        </mxCell>
        <mxCell id="i07Y9Q9IVcWRk9iywD31-7" value="" style="html=1;points=[];perimeter=orthogonalPerimeter;outlineConnect=0;targetShapes=umlLifeline;portConstraint=eastwest;newEdgeStyle={&quot;edgeStyle&quot;:&quot;elbowEdgeStyle&quot;,&quot;elbow&quot;:&quot;vertical&quot;,&quot;curved&quot;:0,&quot;rounded&quot;:0};labelBackgroundColor=none;rounded=1;" parent="i07Y9Q9IVcWRk9iywD31-6" vertex="1">
          <mxGeometry x="45" y="110" width="10" height="170" as="geometry" />
        </mxCell>
        <mxCell id="i07Y9Q9IVcWRk9iywD31-10" value="AuthContext, PlayerProfile" style="html=1;verticalAlign=bottom;endArrow=block;edgeStyle=elbowEdgeStyle;elbow=vertical;curved=0;rounded=1;labelBackgroundColor=none;fontColor=default;dashed=1;" parent="6FJY7qTMQ1HYPNhJQEil-0" edge="1">
          <mxGeometry relative="1" as="geometry">
            <mxPoint x="515" y="300" as="sourcePoint" />
            <Array as="points">
              <mxPoint x="450" y="300" />
            </Array>
            <mxPoint x="360" y="300.5" as="targetPoint" />
          </mxGeometry>
        </mxCell>
        <mxCell id="eWLW0DKjANRu85NP3hEd-17" value="PlayFabClient" style="shape=umlLifeline;perimeter=lifelinePerimeter;whiteSpace=wrap;html=1;container=0;dropTarget=0;collapsible=0;recursiveResize=0;outlineConnect=0;portConstraint=eastwest;newEdgeStyle={&quot;edgeStyle&quot;:&quot;elbowEdgeStyle&quot;,&quot;elbow&quot;:&quot;vertical&quot;,&quot;curved&quot;:0,&quot;rounded&quot;:0};labelBackgroundColor=none;rounded=1;" parent="6FJY7qTMQ1HYPNhJQEil-0" vertex="1">
          <mxGeometry x="860" y="50" width="100" height="490" as="geometry" />
        </mxCell>
        <mxCell id="eWLW0DKjANRu85NP3hEd-18" value="" style="html=1;points=[];perimeter=orthogonalPerimeter;outlineConnect=0;targetShapes=umlLifeline;portConstraint=eastwest;newEdgeStyle={&quot;edgeStyle&quot;:&quot;elbowEdgeStyle&quot;,&quot;elbow&quot;:&quot;vertical&quot;,&quot;curved&quot;:0,&quot;rounded&quot;:0};labelBackgroundColor=none;rounded=1;" parent="eWLW0DKjANRu85NP3hEd-17" vertex="1">
          <mxGeometry x="45" y="100" width="10" height="140" as="geometry" />
        </mxCell>
        <mxCell id="hauwbxo6wyQg0NGbvwxD-3" value="" style="html=1;points=[];perimeter=orthogonalPerimeter;outlineConnect=0;targetShapes=umlLifeline;portConstraint=eastwest;newEdgeStyle={&quot;edgeStyle&quot;:&quot;elbowEdgeStyle&quot;,&quot;elbow&quot;:&quot;vertical&quot;,&quot;curved&quot;:0,&quot;rounded&quot;:0};labelBackgroundColor=none;rounded=1;" vertex="1" parent="eWLW0DKjANRu85NP3hEd-17">
          <mxGeometry x="45" y="290" width="10" height="80" as="geometry" />
        </mxCell>
        <mxCell id="eWLW0DKjANRu85NP3hEd-21" value="PlayFab" style="shape=umlLifeline;perimeter=lifelinePerimeter;whiteSpace=wrap;html=1;container=0;dropTarget=0;collapsible=0;recursiveResize=0;outlineConnect=0;portConstraint=eastwest;newEdgeStyle={&quot;edgeStyle&quot;:&quot;elbowEdgeStyle&quot;,&quot;elbow&quot;:&quot;vertical&quot;,&quot;curved&quot;:0,&quot;rounded&quot;:0};labelBackgroundColor=none;rounded=1;" parent="6FJY7qTMQ1HYPNhJQEil-0" vertex="1">
          <mxGeometry x="1080" y="50" width="100" height="490" as="geometry" />
        </mxCell>
        <mxCell id="eWLW0DKjANRu85NP3hEd-22" value="" style="html=1;points=[];perimeter=orthogonalPerimeter;outlineConnect=0;targetShapes=umlLifeline;portConstraint=eastwest;newEdgeStyle={&quot;edgeStyle&quot;:&quot;elbowEdgeStyle&quot;,&quot;elbow&quot;:&quot;vertical&quot;,&quot;curved&quot;:0,&quot;rounded&quot;:0};labelBackgroundColor=none;rounded=1;" parent="eWLW0DKjANRu85NP3hEd-21" vertex="1">
          <mxGeometry x="45" y="100" width="10" height="140" as="geometry" />
        </mxCell>
        <mxCell id="hauwbxo6wyQg0NGbvwxD-4" value="" style="html=1;points=[];perimeter=orthogonalPerimeter;outlineConnect=0;targetShapes=umlLifeline;portConstraint=eastwest;newEdgeStyle={&quot;edgeStyle&quot;:&quot;elbowEdgeStyle&quot;,&quot;elbow&quot;:&quot;vertical&quot;,&quot;curved&quot;:0,&quot;rounded&quot;:0};labelBackgroundColor=none;rounded=1;" vertex="1" parent="eWLW0DKjANRu85NP3hEd-21">
          <mxGeometry x="45" y="280" width="10" height="70" as="geometry" />
        </mxCell>
        <mxCell id="eWLW0DKjANRu85NP3hEd-23" value="RegisterPlayFabUser(request)" style="html=1;verticalAlign=bottom;endArrow=block;edgeStyle=elbowEdgeStyle;elbow=vertical;curved=0;rounded=1;labelBackgroundColor=none;fontColor=default;" parent="6FJY7qTMQ1HYPNhJQEil-0" target="eWLW0DKjANRu85NP3hEd-22" edge="1">
          <mxGeometry relative="1" as="geometry">
            <mxPoint x="920" y="220" as="sourcePoint" />
            <Array as="points">
              <mxPoint x="915" y="220" />
            </Array>
            <mxPoint x="1110" y="219.5" as="targetPoint" />
          </mxGeometry>
        </mxCell>
        <mxCell id="eWLW0DKjANRu85NP3hEd-25" value="OnRegister Success" style="shape=umlFrame;whiteSpace=wrap;html=1;pointerEvents=0;labelBackgroundColor=none;rounded=1;width=90;height=30;" parent="6FJY7qTMQ1HYPNhJQEil-0" vertex="1">
          <mxGeometry x="890" y="160" width="260" height="100" as="geometry" />
        </mxCell>
        <mxCell id="eWLW0DKjANRu85NP3hEd-27" value="RegisterPlayFabUserResult" style="html=1;verticalAlign=bottom;endArrow=block;edgeStyle=elbowEdgeStyle;elbow=vertical;curved=0;rounded=1;labelBackgroundColor=none;fontColor=default;dashed=1;" parent="6FJY7qTMQ1HYPNhJQEil-0" edge="1">
          <mxGeometry relative="1" as="geometry">
            <mxPoint x="1125" y="250" as="sourcePoint" />
            <Array as="points" />
            <mxPoint x="915" y="250" as="targetPoint" />
            <mxPoint as="offset" />
          </mxGeometry>
        </mxCell>
        <mxCell id="eWLW0DKjANRu85NP3hEd-29" value="PlayFabErrorHandler" style="shape=umlLifeline;perimeter=lifelinePerimeter;whiteSpace=wrap;html=1;container=0;dropTarget=0;collapsible=0;recursiveResize=0;outlineConnect=0;portConstraint=eastwest;newEdgeStyle={&quot;edgeStyle&quot;:&quot;elbowEdgeStyle&quot;,&quot;elbow&quot;:&quot;vertical&quot;,&quot;curved&quot;:0,&quot;rounded&quot;:0};labelBackgroundColor=none;rounded=1;" parent="6FJY7qTMQ1HYPNhJQEil-0" vertex="1">
          <mxGeometry x="680" y="50" width="120" height="490" as="geometry" />
        </mxCell>
        <mxCell id="eWLW0DKjANRu85NP3hEd-37" value="" style="html=1;points=[];perimeter=orthogonalPerimeter;outlineConnect=0;targetShapes=umlLifeline;portConstraint=eastwest;newEdgeStyle={&quot;edgeStyle&quot;:&quot;elbowEdgeStyle&quot;,&quot;elbow&quot;:&quot;vertical&quot;,&quot;curved&quot;:0,&quot;rounded&quot;:0};labelBackgroundColor=none;rounded=1;" parent="eWLW0DKjANRu85NP3hEd-29" vertex="1">
          <mxGeometry x="55" y="310" width="10" height="90" as="geometry" />
        </mxCell>
        <mxCell id="eWLW0DKjANRu85NP3hEd-32" value="PlayFabError" style="html=1;verticalAlign=bottom;endArrow=block;edgeStyle=elbowEdgeStyle;elbow=vertical;curved=0;rounded=1;labelBackgroundColor=none;fontColor=default;dashed=1;" parent="6FJY7qTMQ1HYPNhJQEil-0" edge="1">
          <mxGeometry relative="1" as="geometry">
            <mxPoint x="1125" y="360" as="sourcePoint" />
            <Array as="points" />
            <mxPoint x="915" y="360" as="targetPoint" />
            <mxPoint as="offset" />
          </mxGeometry>
        </mxCell>
        <mxCell id="eWLW0DKjANRu85NP3hEd-34" value="PlayFabError" style="html=1;verticalAlign=bottom;endArrow=block;edgeStyle=elbowEdgeStyle;elbow=vertical;curved=0;rounded=1;labelBackgroundColor=none;fontColor=default;dashed=1;" parent="6FJY7qTMQ1HYPNhJQEil-0" edge="1">
          <mxGeometry x="-0.0625" relative="1" as="geometry">
            <mxPoint x="905" y="400" as="sourcePoint" />
            <Array as="points">
              <mxPoint x="830" y="400" />
            </Array>
            <mxPoint x="745" y="400" as="targetPoint" />
            <mxPoint as="offset" />
          </mxGeometry>
        </mxCell>
        <mxCell id="eWLW0DKjANRu85NP3hEd-35" value="AuthError" style="html=1;verticalAlign=bottom;endArrow=block;edgeStyle=elbowEdgeStyle;elbow=vertical;curved=0;rounded=1;labelBackgroundColor=none;fontColor=default;dashed=1;" parent="6FJY7qTMQ1HYPNhJQEil-0" source="eWLW0DKjANRu85NP3hEd-37" target="hauwbxo6wyQg0NGbvwxD-0" edge="1">
          <mxGeometry x="-0.0133" relative="1" as="geometry">
            <mxPoint x="665" y="430" as="sourcePoint" />
            <Array as="points">
              <mxPoint x="550" y="430" />
            </Array>
            <mxPoint x="380" y="440" as="targetPoint" />
            <mxPoint as="offset" />
          </mxGeometry>
        </mxCell>
        <mxCell id="eWLW0DKjANRu85NP3hEd-36" value="RegisterPlayFabUserResult" style="html=1;verticalAlign=bottom;endArrow=block;edgeStyle=elbowEdgeStyle;elbow=vertical;curved=0;rounded=1;labelBackgroundColor=none;fontColor=default;dashed=1;" parent="6FJY7qTMQ1HYPNhJQEil-0" source="eWLW0DKjANRu85NP3hEd-18" edge="1">
          <mxGeometry x="0.4474" relative="1" as="geometry">
            <mxPoint x="835" y="280" as="sourcePoint" />
            <Array as="points" />
            <mxPoint x="525" y="280" as="targetPoint" />
            <mxPoint as="offset" />
          </mxGeometry>
        </mxCell>
        <mxCell id="eWLW0DKjANRu85NP3hEd-41" value="OnRegister Fail" style="shape=umlFrame;whiteSpace=wrap;html=1;pointerEvents=0;labelBackgroundColor=none;rounded=1;width=85;height=30;" parent="6FJY7qTMQ1HYPNhJQEil-0" vertex="1">
          <mxGeometry x="890" y="300" width="260" height="80" as="geometry" />
        </mxCell>
        <mxCell id="i07Y9Q9IVcWRk9iywD31-8" value="Authenticate(method&lt;span style=&quot;background-color: initial;&quot;&gt;)&lt;/span&gt;" style="html=1;verticalAlign=bottom;endArrow=block;edgeStyle=elbowEdgeStyle;elbow=vertical;curved=0;rounded=1;labelBackgroundColor=none;fontColor=default;" parent="6FJY7qTMQ1HYPNhJQEil-0" edge="1">
          <mxGeometry relative="1" as="geometry">
            <mxPoint x="360" y="200" as="sourcePoint" />
            <Array as="points">
              <mxPoint x="440" y="200.5" />
            </Array>
            <mxPoint x="515" y="200" as="targetPoint" />
          </mxGeometry>
        </mxCell>
        <mxCell id="eWLW0DKjANRu85NP3hEd-20" value="Register(username, password, email&lt;span style=&quot;background-color: initial;&quot;&gt;)&lt;/span&gt;" style="html=1;verticalAlign=bottom;endArrow=block;edgeStyle=elbowEdgeStyle;elbow=vertical;curved=0;rounded=1;labelBackgroundColor=none;fontColor=default;jumpStyle=none;" parent="6FJY7qTMQ1HYPNhJQEil-0" edge="1">
          <mxGeometry x="-0.4474" relative="1" as="geometry">
            <mxPoint x="525" y="210" as="sourcePoint" />
            <Array as="points">
              <mxPoint x="600" y="210" />
            </Array>
            <mxPoint x="905" y="210" as="targetPoint" />
            <mxPoint as="offset" />
          </mxGeometry>
        </mxCell>
        <mxCell id="PeBvlrWkLu78yxdczTj9-2" value="" style="html=1;points=[];perimeter=orthogonalPerimeter;outlineConnect=0;targetShapes=umlLifeline;portConstraint=eastwest;newEdgeStyle={&quot;edgeStyle&quot;:&quot;elbowEdgeStyle&quot;,&quot;elbow&quot;:&quot;vertical&quot;,&quot;curved&quot;:0,&quot;rounded&quot;:0};labelBackgroundColor=none;rounded=1;" parent="6FJY7qTMQ1HYPNhJQEil-0" vertex="1">
          <mxGeometry x="100" y="410" width="10" height="80" as="geometry" />
        </mxCell>
        <mxCell id="6FJY7qTMQ1HYPNhJQEil-1" value="Actor" style="shape=umlActor;verticalLabelPosition=bottom;verticalAlign=top;html=1;outlineConnect=0;rounded=1;" parent="WIyWlLk6GJQsqaUBKTNV-1" vertex="1">
          <mxGeometry x="-580" y="110" width="30" height="60" as="geometry" />
        </mxCell>
      </root>
    </mxGraphModel>
  </diagram>
  <diagram id="2zPq-JnPETkkiSN4lSlv" name="Login">
    <mxGraphModel dx="2352" dy="1777" grid="1" gridSize="10" guides="1" tooltips="1" connect="1" arrows="1" fold="1" page="1" pageScale="1" pageWidth="850" pageHeight="1100" math="0" shadow="1">
      <root>
        <mxCell id="0" />
        <mxCell id="1" parent="0" />
        <mxCell id="9pFvlmLkTShVl_0i6Fsn-1" value="Authentication Manager" style="shape=umlLifeline;perimeter=lifelinePerimeter;whiteSpace=wrap;html=1;container=0;dropTarget=0;collapsible=0;recursiveResize=0;outlineConnect=0;portConstraint=eastwest;newEdgeStyle={&quot;edgeStyle&quot;:&quot;elbowEdgeStyle&quot;,&quot;elbow&quot;:&quot;vertical&quot;,&quot;curved&quot;:0,&quot;rounded&quot;:0};labelBackgroundColor=none;rounded=1;glass=0;" parent="1" vertex="1">
          <mxGeometry x="-80" y="30" width="150" height="490" as="geometry" />
        </mxCell>
        <mxCell id="9pFvlmLkTShVl_0i6Fsn-2" value="" style="html=1;points=[];perimeter=orthogonalPerimeter;outlineConnect=0;targetShapes=umlLifeline;portConstraint=eastwest;newEdgeStyle={&quot;edgeStyle&quot;:&quot;elbowEdgeStyle&quot;,&quot;elbow&quot;:&quot;vertical&quot;,&quot;curved&quot;:0,&quot;rounded&quot;:0};labelBackgroundColor=none;rounded=1;" parent="9pFvlmLkTShVl_0i6Fsn-1" vertex="1">
          <mxGeometry x="70" y="110" width="10" height="60" as="geometry" />
        </mxCell>
        <mxCell id="rTRFzyeFK-QftKqD75oZ-7" value="" style="html=1;points=[];perimeter=orthogonalPerimeter;outlineConnect=0;targetShapes=umlLifeline;portConstraint=eastwest;newEdgeStyle={&quot;edgeStyle&quot;:&quot;elbowEdgeStyle&quot;,&quot;elbow&quot;:&quot;vertical&quot;,&quot;curved&quot;:0,&quot;rounded&quot;:0};labelBackgroundColor=none;rounded=1;" vertex="1" parent="9pFvlmLkTShVl_0i6Fsn-1">
          <mxGeometry x="70" y="370" width="10" height="60" as="geometry" />
        </mxCell>
        <mxCell id="9pFvlmLkTShVl_0i6Fsn-3" value="Authentication Service" style="shape=umlLifeline;perimeter=lifelinePerimeter;whiteSpace=wrap;html=1;container=0;dropTarget=0;collapsible=0;recursiveResize=0;outlineConnect=0;portConstraint=eastwest;newEdgeStyle={&quot;edgeStyle&quot;:&quot;elbowEdgeStyle&quot;,&quot;elbow&quot;:&quot;vertical&quot;,&quot;curved&quot;:0,&quot;rounded&quot;:0};labelBackgroundColor=none;rounded=1;" parent="1" vertex="1">
          <mxGeometry x="110" y="30" width="100" height="310" as="geometry" />
        </mxCell>
        <mxCell id="9pFvlmLkTShVl_0i6Fsn-4" value="" style="html=1;points=[];perimeter=orthogonalPerimeter;outlineConnect=0;targetShapes=umlLifeline;portConstraint=eastwest;newEdgeStyle={&quot;edgeStyle&quot;:&quot;elbowEdgeStyle&quot;,&quot;elbow&quot;:&quot;vertical&quot;,&quot;curved&quot;:0,&quot;rounded&quot;:0};labelBackgroundColor=none;rounded=1;" parent="9pFvlmLkTShVl_0i6Fsn-3" vertex="1">
          <mxGeometry x="45" y="130" width="10" height="50" as="geometry" />
        </mxCell>
        <mxCell id="rTRFzyeFK-QftKqD75oZ-9" value="" style="html=1;points=[];perimeter=orthogonalPerimeter;outlineConnect=0;targetShapes=umlLifeline;portConstraint=eastwest;newEdgeStyle={&quot;edgeStyle&quot;:&quot;elbowEdgeStyle&quot;,&quot;elbow&quot;:&quot;vertical&quot;,&quot;curved&quot;:0,&quot;rounded&quot;:0};labelBackgroundColor=none;rounded=1;" vertex="1" parent="9pFvlmLkTShVl_0i6Fsn-3">
          <mxGeometry x="45" y="210" width="10" height="50" as="geometry" />
        </mxCell>
        <mxCell id="9pFvlmLkTShVl_0i6Fsn-5" value="AuthContext, PlayerProfile" style="html=1;verticalAlign=bottom;endArrow=block;edgeStyle=elbowEdgeStyle;elbow=vertical;curved=0;rounded=1;labelBackgroundColor=none;fontColor=default;dashed=1;" parent="1" edge="1">
          <mxGeometry relative="1" as="geometry">
            <mxPoint x="155" y="280" as="sourcePoint" />
            <Array as="points">
              <mxPoint x="90" y="280" />
            </Array>
            <mxPoint y="280.5" as="targetPoint" />
          </mxGeometry>
        </mxCell>
        <mxCell id="9pFvlmLkTShVl_0i6Fsn-6" value="Login View" style="shape=umlLifeline;perimeter=lifelinePerimeter;whiteSpace=wrap;html=1;container=0;dropTarget=0;collapsible=0;recursiveResize=0;outlineConnect=0;portConstraint=eastwest;newEdgeStyle={&quot;edgeStyle&quot;:&quot;elbowEdgeStyle&quot;,&quot;elbow&quot;:&quot;vertical&quot;,&quot;curved&quot;:0,&quot;rounded&quot;:0};labelBackgroundColor=none;rounded=1;glass=0;" parent="1" vertex="1">
          <mxGeometry x="-310" y="30" width="150" height="490" as="geometry" />
        </mxCell>
        <mxCell id="9pFvlmLkTShVl_0i6Fsn-7" value="" style="html=1;points=[];perimeter=orthogonalPerimeter;outlineConnect=0;targetShapes=umlLifeline;portConstraint=eastwest;newEdgeStyle={&quot;edgeStyle&quot;:&quot;elbowEdgeStyle&quot;,&quot;elbow&quot;:&quot;vertical&quot;,&quot;curved&quot;:0,&quot;rounded&quot;:0};labelBackgroundColor=none;rounded=1;" parent="9pFvlmLkTShVl_0i6Fsn-6" vertex="1">
          <mxGeometry x="70" y="75" width="10" height="85" as="geometry" />
        </mxCell>
        <mxCell id="9pFvlmLkTShVl_0i6Fsn-8" value="PlayFabClient" style="shape=umlLifeline;perimeter=lifelinePerimeter;whiteSpace=wrap;html=1;container=0;dropTarget=0;collapsible=0;recursiveResize=0;outlineConnect=0;portConstraint=eastwest;newEdgeStyle={&quot;edgeStyle&quot;:&quot;elbowEdgeStyle&quot;,&quot;elbow&quot;:&quot;vertical&quot;,&quot;curved&quot;:0,&quot;rounded&quot;:0};labelBackgroundColor=none;rounded=1;" parent="1" vertex="1">
          <mxGeometry x="500" y="30" width="100" height="490" as="geometry" />
        </mxCell>
        <mxCell id="9pFvlmLkTShVl_0i6Fsn-9" value="" style="html=1;points=[];perimeter=orthogonalPerimeter;outlineConnect=0;targetShapes=umlLifeline;portConstraint=eastwest;newEdgeStyle={&quot;edgeStyle&quot;:&quot;elbowEdgeStyle&quot;,&quot;elbow&quot;:&quot;vertical&quot;,&quot;curved&quot;:0,&quot;rounded&quot;:0};labelBackgroundColor=none;rounded=1;" parent="9pFvlmLkTShVl_0i6Fsn-8" vertex="1">
          <mxGeometry x="45" y="100" width="10" height="140" as="geometry" />
        </mxCell>
        <mxCell id="rTRFzyeFK-QftKqD75oZ-10" value="" style="html=1;points=[];perimeter=orthogonalPerimeter;outlineConnect=0;targetShapes=umlLifeline;portConstraint=eastwest;newEdgeStyle={&quot;edgeStyle&quot;:&quot;elbowEdgeStyle&quot;,&quot;elbow&quot;:&quot;vertical&quot;,&quot;curved&quot;:0,&quot;rounded&quot;:0};labelBackgroundColor=none;rounded=1;" vertex="1" parent="9pFvlmLkTShVl_0i6Fsn-8">
          <mxGeometry x="45" y="250" width="10" height="110" as="geometry" />
        </mxCell>
        <mxCell id="9pFvlmLkTShVl_0i6Fsn-10" value="PlayFab" style="shape=umlLifeline;perimeter=lifelinePerimeter;whiteSpace=wrap;html=1;container=0;dropTarget=0;collapsible=0;recursiveResize=0;outlineConnect=0;portConstraint=eastwest;newEdgeStyle={&quot;edgeStyle&quot;:&quot;elbowEdgeStyle&quot;,&quot;elbow&quot;:&quot;vertical&quot;,&quot;curved&quot;:0,&quot;rounded&quot;:0};labelBackgroundColor=none;rounded=1;" parent="1" vertex="1">
          <mxGeometry x="720" y="30" width="100" height="490" as="geometry" />
        </mxCell>
        <mxCell id="9pFvlmLkTShVl_0i6Fsn-11" value="" style="html=1;points=[];perimeter=orthogonalPerimeter;outlineConnect=0;targetShapes=umlLifeline;portConstraint=eastwest;newEdgeStyle={&quot;edgeStyle&quot;:&quot;elbowEdgeStyle&quot;,&quot;elbow&quot;:&quot;vertical&quot;,&quot;curved&quot;:0,&quot;rounded&quot;:0};labelBackgroundColor=none;rounded=1;" parent="9pFvlmLkTShVl_0i6Fsn-10" vertex="1">
          <mxGeometry x="45" y="100" width="10" height="140" as="geometry" />
        </mxCell>
        <mxCell id="9pFvlmLkTShVl_0i6Fsn-12" value="LoginWithXXX" style="html=1;verticalAlign=bottom;endArrow=block;edgeStyle=elbowEdgeStyle;elbow=vertical;curved=0;rounded=1;labelBackgroundColor=none;fontColor=default;" parent="1" target="9pFvlmLkTShVl_0i6Fsn-11" edge="1">
          <mxGeometry relative="1" as="geometry">
            <mxPoint x="560" y="200" as="sourcePoint" />
            <Array as="points">
              <mxPoint x="555" y="200" />
            </Array>
            <mxPoint x="750" y="199.5" as="targetPoint" />
          </mxGeometry>
        </mxCell>
        <mxCell id="9pFvlmLkTShVl_0i6Fsn-13" value="OnLoginSuccess" style="shape=umlFrame;whiteSpace=wrap;html=1;pointerEvents=0;labelBackgroundColor=none;rounded=1;width=110;height=30;" parent="1" vertex="1">
          <mxGeometry x="530" y="140" width="260" height="100" as="geometry" />
        </mxCell>
        <mxCell id="9pFvlmLkTShVl_0i6Fsn-14" value="LoginResult" style="html=1;verticalAlign=bottom;endArrow=block;edgeStyle=elbowEdgeStyle;elbow=vertical;curved=0;rounded=1;labelBackgroundColor=none;fontColor=default;dashed=1;" parent="1" edge="1">
          <mxGeometry relative="1" as="geometry">
            <mxPoint x="765" y="230" as="sourcePoint" />
            <Array as="points" />
            <mxPoint x="555" y="230" as="targetPoint" />
            <mxPoint as="offset" />
          </mxGeometry>
        </mxCell>
        <mxCell id="9pFvlmLkTShVl_0i6Fsn-15" value="PlayFabErrorHandler" style="shape=umlLifeline;perimeter=lifelinePerimeter;whiteSpace=wrap;html=1;container=0;dropTarget=0;collapsible=0;recursiveResize=0;outlineConnect=0;portConstraint=eastwest;newEdgeStyle={&quot;edgeStyle&quot;:&quot;elbowEdgeStyle&quot;,&quot;elbow&quot;:&quot;vertical&quot;,&quot;curved&quot;:0,&quot;rounded&quot;:0};labelBackgroundColor=none;rounded=1;" parent="1" vertex="1">
          <mxGeometry x="320" y="30" width="120" height="490" as="geometry" />
        </mxCell>
        <mxCell id="9pFvlmLkTShVl_0i6Fsn-16" value="" style="html=1;points=[];perimeter=orthogonalPerimeter;outlineConnect=0;targetShapes=umlLifeline;portConstraint=eastwest;newEdgeStyle={&quot;edgeStyle&quot;:&quot;elbowEdgeStyle&quot;,&quot;elbow&quot;:&quot;vertical&quot;,&quot;curved&quot;:0,&quot;rounded&quot;:0};labelBackgroundColor=none;rounded=1;" parent="9pFvlmLkTShVl_0i6Fsn-15" vertex="1">
          <mxGeometry x="55" y="320" width="10" height="80" as="geometry" />
        </mxCell>
        <mxCell id="9pFvlmLkTShVl_0i6Fsn-17" value="PlayFabError" style="html=1;verticalAlign=bottom;endArrow=block;edgeStyle=elbowEdgeStyle;elbow=vertical;curved=0;rounded=1;labelBackgroundColor=none;fontColor=default;dashed=1;" parent="1" edge="1">
          <mxGeometry relative="1" as="geometry">
            <mxPoint x="765" y="340" as="sourcePoint" />
            <Array as="points" />
            <mxPoint x="555" y="340" as="targetPoint" />
            <mxPoint as="offset" />
          </mxGeometry>
        </mxCell>
        <mxCell id="9pFvlmLkTShVl_0i6Fsn-18" value="PlayFabError" style="html=1;verticalAlign=bottom;endArrow=block;edgeStyle=elbowEdgeStyle;elbow=vertical;curved=0;rounded=1;labelBackgroundColor=none;fontColor=default;dashed=1;" parent="1" edge="1">
          <mxGeometry x="-0.0625" relative="1" as="geometry">
            <mxPoint x="545" y="380" as="sourcePoint" />
            <Array as="points">
              <mxPoint x="470" y="380" />
            </Array>
            <mxPoint x="385" y="380" as="targetPoint" />
            <mxPoint as="offset" />
          </mxGeometry>
        </mxCell>
        <mxCell id="9pFvlmLkTShVl_0i6Fsn-20" value="LoginResult" style="html=1;verticalAlign=bottom;endArrow=block;edgeStyle=elbowEdgeStyle;elbow=vertical;curved=0;rounded=1;labelBackgroundColor=none;fontColor=default;dashed=1;" parent="1" source="9pFvlmLkTShVl_0i6Fsn-9" edge="1">
          <mxGeometry x="0.4474" relative="1" as="geometry">
            <mxPoint x="475" y="260" as="sourcePoint" />
            <Array as="points" />
            <mxPoint x="165" y="260" as="targetPoint" />
            <mxPoint as="offset" />
          </mxGeometry>
        </mxCell>
        <mxCell id="9pFvlmLkTShVl_0i6Fsn-21" value="OnLoginFail" style="shape=umlFrame;whiteSpace=wrap;html=1;pointerEvents=0;labelBackgroundColor=none;rounded=1;width=85;height=30;" parent="1" vertex="1">
          <mxGeometry x="530" y="280" width="260" height="80" as="geometry" />
        </mxCell>
        <mxCell id="9pFvlmLkTShVl_0i6Fsn-22" value="User Login" style="swimlane;whiteSpace=wrap;html=1;rounded=1;" parent="1" vertex="1">
          <mxGeometry x="-340" y="-20" width="1220" height="590" as="geometry" />
        </mxCell>
        <mxCell id="9pFvlmLkTShVl_0i6Fsn-23" value="Click Login Button" style="html=1;verticalAlign=bottom;endArrow=block;edgeStyle=elbowEdgeStyle;elbow=vertical;curved=0;rounded=1;labelBackgroundColor=none;fontColor=default;" parent="9pFvlmLkTShVl_0i6Fsn-22" source="9pFvlmLkTShVl_0i6Fsn-30" edge="1">
          <mxGeometry x="-0.2609" y="-1" relative="1" as="geometry">
            <mxPoint x="-50" y="180" as="sourcePoint" />
            <Array as="points">
              <mxPoint x="110" y="180" />
            </Array>
            <mxPoint x="100" y="180.59" as="targetPoint" />
            <mxPoint as="offset" />
          </mxGeometry>
        </mxCell>
        <mxCell id="9pFvlmLkTShVl_0i6Fsn-24" value="Enter User info" style="html=1;verticalAlign=bottom;endArrow=block;edgeStyle=elbowEdgeStyle;elbow=vertical;curved=0;rounded=1;labelBackgroundColor=none;fontColor=default;exitX=1;exitY=0.3333333333333333;exitDx=0;exitDy=0;exitPerimeter=0;" parent="9pFvlmLkTShVl_0i6Fsn-22" source="9pFvlmLkTShVl_0i6Fsn-30" edge="1">
          <mxGeometry x="-0.2609" y="-1" relative="1" as="geometry">
            <mxPoint x="-190" y="151" as="sourcePoint" />
            <Array as="points">
              <mxPoint x="110" y="150" />
            </Array>
            <mxPoint x="100" y="150.59" as="targetPoint" />
            <mxPoint as="offset" />
          </mxGeometry>
        </mxCell>
        <mxCell id="9pFvlmLkTShVl_0i6Fsn-25" value="Login_OnClick()" style="html=1;verticalAlign=bottom;endArrow=block;edgeStyle=elbowEdgeStyle;elbow=vertical;curved=0;rounded=1;labelBackgroundColor=none;fontColor=default;" parent="9pFvlmLkTShVl_0i6Fsn-22" edge="1">
          <mxGeometry relative="1" as="geometry">
            <mxPoint x="110" y="190.12" as="sourcePoint" />
            <Array as="points" />
            <mxPoint x="330" y="190.12" as="targetPoint" />
          </mxGeometry>
        </mxCell>
        <mxCell id="9pFvlmLkTShVl_0i6Fsn-26" value="Authenticate(method&lt;span style=&quot;background-color: initial;&quot;&gt;)&lt;/span&gt;" style="html=1;verticalAlign=bottom;endArrow=block;edgeStyle=elbowEdgeStyle;elbow=vertical;curved=0;rounded=1;labelBackgroundColor=none;fontColor=default;" parent="9pFvlmLkTShVl_0i6Fsn-22" edge="1">
          <mxGeometry relative="1" as="geometry">
            <mxPoint x="340" y="200" as="sourcePoint" />
            <Array as="points">
              <mxPoint x="420" y="200.5" />
            </Array>
            <mxPoint x="495" y="200" as="targetPoint" />
          </mxGeometry>
        </mxCell>
        <mxCell id="9pFvlmLkTShVl_0i6Fsn-27" value="LoginWithXXX" style="html=1;verticalAlign=bottom;endArrow=block;edgeStyle=elbowEdgeStyle;elbow=vertical;curved=0;rounded=1;labelBackgroundColor=none;fontColor=default;jumpStyle=none;" parent="9pFvlmLkTShVl_0i6Fsn-22" edge="1">
          <mxGeometry x="-0.4474" relative="1" as="geometry">
            <mxPoint x="505" y="210" as="sourcePoint" />
            <Array as="points">
              <mxPoint x="580" y="210" />
            </Array>
            <mxPoint x="885" y="210" as="targetPoint" />
            <mxPoint as="offset" />
          </mxGeometry>
        </mxCell>
        <mxCell id="9pFvlmLkTShVl_0i6Fsn-28" value="Error Message" style="html=1;verticalAlign=bottom;endArrow=block;edgeStyle=elbowEdgeStyle;elbow=vertical;curved=0;rounded=1;labelBackgroundColor=none;fontColor=default;dashed=1;" parent="9pFvlmLkTShVl_0i6Fsn-22" edge="1">
          <mxGeometry relative="1" as="geometry">
            <mxPoint x="330" y="450.47058823529414" as="sourcePoint" />
            <Array as="points" />
            <mxPoint x="110" y="450" as="targetPoint" />
            <mxPoint as="offset" />
          </mxGeometry>
        </mxCell>
        <mxCell id="9pFvlmLkTShVl_0i6Fsn-29" value="PlayerProfile" style="html=1;verticalAlign=bottom;endArrow=block;edgeStyle=elbowEdgeStyle;elbow=vertical;curved=0;rounded=1;labelBackgroundColor=none;fontColor=default;dashed=1;" parent="9pFvlmLkTShVl_0i6Fsn-22" edge="1">
          <mxGeometry relative="1" as="geometry">
            <mxPoint x="330" y="320" as="sourcePoint" />
            <Array as="points">
              <mxPoint x="200" y="320" />
            </Array>
            <mxPoint x="110" y="320.5" as="targetPoint" />
          </mxGeometry>
        </mxCell>
        <mxCell id="rTRFzyeFK-QftKqD75oZ-1" value="" style="html=1;points=[];perimeter=orthogonalPerimeter;outlineConnect=0;targetShapes=umlLifeline;portConstraint=eastwest;newEdgeStyle={&quot;edgeStyle&quot;:&quot;elbowEdgeStyle&quot;,&quot;elbow&quot;:&quot;vertical&quot;,&quot;curved&quot;:0,&quot;rounded&quot;:0};labelBackgroundColor=none;rounded=1;" vertex="1" parent="9pFvlmLkTShVl_0i6Fsn-22">
          <mxGeometry x="100" y="300" width="10" height="40" as="geometry" />
        </mxCell>
        <mxCell id="rTRFzyeFK-QftKqD75oZ-2" value="" style="html=1;points=[];perimeter=orthogonalPerimeter;outlineConnect=0;targetShapes=umlLifeline;portConstraint=eastwest;newEdgeStyle={&quot;edgeStyle&quot;:&quot;elbowEdgeStyle&quot;,&quot;elbow&quot;:&quot;vertical&quot;,&quot;curved&quot;:0,&quot;rounded&quot;:0};labelBackgroundColor=none;rounded=1;" vertex="1" parent="9pFvlmLkTShVl_0i6Fsn-22">
          <mxGeometry x="100" y="430" width="10" height="40" as="geometry" />
        </mxCell>
        <mxCell id="rTRFzyeFK-QftKqD75oZ-8" value="AuthError" style="html=1;verticalAlign=bottom;endArrow=block;edgeStyle=elbowEdgeStyle;elbow=vertical;curved=0;rounded=1;labelBackgroundColor=none;fontColor=default;dashed=1;" edge="1" parent="9pFvlmLkTShVl_0i6Fsn-22" source="9pFvlmLkTShVl_0i6Fsn-16">
          <mxGeometry x="-0.0625" relative="1" as="geometry">
            <mxPoint x="670" y="440" as="sourcePoint" />
            <Array as="points">
              <mxPoint x="425" y="440" />
            </Array>
            <mxPoint x="340" y="440" as="targetPoint" />
            <mxPoint as="offset" />
          </mxGeometry>
        </mxCell>
        <mxCell id="rTRFzyeFK-QftKqD75oZ-11" value="" style="html=1;points=[];perimeter=orthogonalPerimeter;outlineConnect=0;targetShapes=umlLifeline;portConstraint=eastwest;newEdgeStyle={&quot;edgeStyle&quot;:&quot;elbowEdgeStyle&quot;,&quot;elbow&quot;:&quot;vertical&quot;,&quot;curved&quot;:0,&quot;rounded&quot;:0};labelBackgroundColor=none;rounded=1;" vertex="1" parent="9pFvlmLkTShVl_0i6Fsn-22">
          <mxGeometry x="1105" y="330" width="10" height="60" as="geometry" />
        </mxCell>
        <mxCell id="9pFvlmLkTShVl_0i6Fsn-30" value="Actor" style="shape=umlActor;verticalLabelPosition=bottom;verticalAlign=top;html=1;outlineConnect=0;rounded=1;" parent="1" vertex="1">
          <mxGeometry x="-540" y="110" width="30" height="60" as="geometry" />
        </mxCell>
        <mxCell id="rTRFzyeFK-QftKqD75oZ-5" value="" style="html=1;points=[];perimeter=orthogonalPerimeter;outlineConnect=0;targetShapes=umlLifeline;portConstraint=eastwest;newEdgeStyle={&quot;edgeStyle&quot;:&quot;elbowEdgeStyle&quot;,&quot;elbow&quot;:&quot;vertical&quot;,&quot;curved&quot;:0,&quot;rounded&quot;:0};labelBackgroundColor=none;rounded=1;" vertex="1" parent="1">
          <mxGeometry x="-10" y="250" width="10" height="60" as="geometry" />
        </mxCell>
      </root>
    </mxGraphModel>
  </diagram>
  <diagram id="duM8JC22KyO4HIfyAu70" name="DailyReward">
    <mxGraphModel dx="2546" dy="967" grid="1" gridSize="10" guides="1" tooltips="1" connect="1" arrows="1" fold="1" page="0" pageScale="1" pageWidth="850" pageHeight="1100" math="0" shadow="1">
      <root>
        <mxCell id="0" />
        <mxCell id="1" parent="0" />
        <mxCell id="ft3onFS2T5pZU7FOAcKb-3" value="DailyRewardHandler" style="shape=umlLifeline;perimeter=lifelinePerimeter;whiteSpace=wrap;html=1;container=0;dropTarget=0;collapsible=0;recursiveResize=0;outlineConnect=0;portConstraint=eastwest;newEdgeStyle={&quot;edgeStyle&quot;:&quot;elbowEdgeStyle&quot;,&quot;elbow&quot;:&quot;vertical&quot;,&quot;curved&quot;:0,&quot;rounded&quot;:0};labelBackgroundColor=none;rounded=1;" parent="1" vertex="1">
          <mxGeometry x="320" y="120" width="125" height="480" as="geometry" />
        </mxCell>
        <mxCell id="ft3onFS2T5pZU7FOAcKb-4" value="" style="html=1;points=[];perimeter=orthogonalPerimeter;outlineConnect=0;targetShapes=umlLifeline;portConstraint=eastwest;newEdgeStyle={&quot;edgeStyle&quot;:&quot;elbowEdgeStyle&quot;,&quot;elbow&quot;:&quot;vertical&quot;,&quot;curved&quot;:0,&quot;rounded&quot;:0};labelBackgroundColor=none;rounded=1;" parent="ft3onFS2T5pZU7FOAcKb-3" vertex="1">
          <mxGeometry x="57.5" y="110" width="10" height="60" as="geometry" />
        </mxCell>
        <mxCell id="pRTaHTDcilZrjx9ZeTop-37" value="" style="html=1;points=[];perimeter=orthogonalPerimeter;outlineConnect=0;targetShapes=umlLifeline;portConstraint=eastwest;newEdgeStyle={&quot;edgeStyle&quot;:&quot;elbowEdgeStyle&quot;,&quot;elbow&quot;:&quot;vertical&quot;,&quot;curved&quot;:0,&quot;rounded&quot;:0};labelBackgroundColor=none;rounded=1;" parent="ft3onFS2T5pZU7FOAcKb-3" vertex="1">
          <mxGeometry x="57.5" y="280" width="10" height="60" as="geometry" />
        </mxCell>
        <mxCell id="pRTaHTDcilZrjx9ZeTop-41" value="" style="html=1;points=[];perimeter=orthogonalPerimeter;outlineConnect=0;targetShapes=umlLifeline;portConstraint=eastwest;newEdgeStyle={&quot;edgeStyle&quot;:&quot;elbowEdgeStyle&quot;,&quot;elbow&quot;:&quot;vertical&quot;,&quot;curved&quot;:0,&quot;rounded&quot;:0};labelBackgroundColor=none;rounded=1;" parent="ft3onFS2T5pZU7FOAcKb-3" vertex="1">
          <mxGeometry x="57.5" y="390" width="10" height="40" as="geometry" />
        </mxCell>
        <mxCell id="ft3onFS2T5pZU7FOAcKb-5" value="DailyRewardView" style="shape=umlLifeline;perimeter=lifelinePerimeter;whiteSpace=wrap;html=1;container=0;dropTarget=0;collapsible=0;recursiveResize=0;outlineConnect=0;portConstraint=eastwest;newEdgeStyle={&quot;edgeStyle&quot;:&quot;elbowEdgeStyle&quot;,&quot;elbow&quot;:&quot;vertical&quot;,&quot;curved&quot;:0,&quot;rounded&quot;:0};labelBackgroundColor=none;rounded=1;" parent="1" vertex="1">
          <mxGeometry x="130" y="120" width="100" height="480" as="geometry" />
        </mxCell>
        <mxCell id="ft3onFS2T5pZU7FOAcKb-6" value="" style="html=1;points=[];perimeter=orthogonalPerimeter;outlineConnect=0;targetShapes=umlLifeline;portConstraint=eastwest;newEdgeStyle={&quot;edgeStyle&quot;:&quot;elbowEdgeStyle&quot;,&quot;elbow&quot;:&quot;vertical&quot;,&quot;curved&quot;:0,&quot;rounded&quot;:0};labelBackgroundColor=none;rounded=1;" parent="ft3onFS2T5pZU7FOAcKb-5" vertex="1">
          <mxGeometry x="45" y="80" width="10" height="80" as="geometry" />
        </mxCell>
        <mxCell id="pRTaHTDcilZrjx9ZeTop-38" value="" style="html=1;points=[];perimeter=orthogonalPerimeter;outlineConnect=0;targetShapes=umlLifeline;portConstraint=eastwest;newEdgeStyle={&quot;edgeStyle&quot;:&quot;elbowEdgeStyle&quot;,&quot;elbow&quot;:&quot;vertical&quot;,&quot;curved&quot;:0,&quot;rounded&quot;:0};labelBackgroundColor=none;rounded=1;" parent="ft3onFS2T5pZU7FOAcKb-5" vertex="1">
          <mxGeometry x="45" y="300" width="10" height="40" as="geometry" />
        </mxCell>
        <mxCell id="pRTaHTDcilZrjx9ZeTop-43" value="" style="html=1;points=[];perimeter=orthogonalPerimeter;outlineConnect=0;targetShapes=umlLifeline;portConstraint=eastwest;newEdgeStyle={&quot;edgeStyle&quot;:&quot;elbowEdgeStyle&quot;,&quot;elbow&quot;:&quot;vertical&quot;,&quot;curved&quot;:0,&quot;rounded&quot;:0};labelBackgroundColor=none;rounded=1;" parent="ft3onFS2T5pZU7FOAcKb-5" vertex="1">
          <mxGeometry x="45" y="400" width="10" height="40" as="geometry" />
        </mxCell>
        <mxCell id="aya3Sy-MLFj3Hf3OioNP-3" value="Actor" style="shape=umlActor;verticalLabelPosition=bottom;verticalAlign=top;html=1;outlineConnect=0;rounded=1;" parent="1" vertex="1">
          <mxGeometry x="-30" y="210" width="30" height="60" as="geometry" />
        </mxCell>
        <mxCell id="tdNsQxh4n6OvZyDBStR3-2" value="Click Claim Daily Reward Button" style="html=1;verticalAlign=bottom;endArrow=block;curved=0;rounded=1;" parent="1" target="ft3onFS2T5pZU7FOAcKb-6" edge="1">
          <mxGeometry width="80" relative="1" as="geometry">
            <mxPoint y="240" as="sourcePoint" />
            <mxPoint x="170" y="240" as="targetPoint" />
          </mxGeometry>
        </mxCell>
        <mxCell id="tdNsQxh4n6OvZyDBStR3-3" value="ClaimDailyReward_OnClick()" style="html=1;verticalAlign=bottom;endArrow=block;curved=0;rounded=1;" parent="1" edge="1">
          <mxGeometry width="80" relative="1" as="geometry">
            <mxPoint x="185" y="250" as="sourcePoint" />
            <mxPoint x="377.5" y="250" as="targetPoint" />
          </mxGeometry>
        </mxCell>
        <mxCell id="nTin5kN3kxidUM13XaOL-1" value="CloudScriptRunner" style="shape=umlLifeline;perimeter=lifelinePerimeter;whiteSpace=wrap;html=1;container=0;dropTarget=0;collapsible=0;recursiveResize=0;outlineConnect=0;portConstraint=eastwest;newEdgeStyle={&quot;edgeStyle&quot;:&quot;elbowEdgeStyle&quot;,&quot;elbow&quot;:&quot;vertical&quot;,&quot;curved&quot;:0,&quot;rounded&quot;:0};labelBackgroundColor=none;rounded=1;" parent="1" vertex="1">
          <mxGeometry x="520" y="120" width="125" height="210" as="geometry" />
        </mxCell>
        <mxCell id="nTin5kN3kxidUM13XaOL-2" value="" style="html=1;points=[];perimeter=orthogonalPerimeter;outlineConnect=0;targetShapes=umlLifeline;portConstraint=eastwest;newEdgeStyle={&quot;edgeStyle&quot;:&quot;elbowEdgeStyle&quot;,&quot;elbow&quot;:&quot;vertical&quot;,&quot;curved&quot;:0,&quot;rounded&quot;:0};labelBackgroundColor=none;rounded=1;" parent="nTin5kN3kxidUM13XaOL-1" vertex="1">
          <mxGeometry x="57.5" y="120" width="10" height="60" as="geometry" />
        </mxCell>
        <mxCell id="nTin5kN3kxidUM13XaOL-3" value="ClaimDailyReward()" style="html=1;verticalAlign=bottom;endArrow=block;curved=0;rounded=1;" parent="1" edge="1">
          <mxGeometry width="80" relative="1" as="geometry">
            <mxPoint x="387.5" y="260" as="sourcePoint" />
            <mxPoint x="577.5" y="260" as="targetPoint" />
          </mxGeometry>
        </mxCell>
        <mxCell id="nTin5kN3kxidUM13XaOL-6" value="RunScript(function name, params)" style="html=1;verticalAlign=bottom;endArrow=block;curved=0;rounded=1;" parent="1" target="pRTaHTDcilZrjx9ZeTop-17" edge="1">
          <mxGeometry width="80" relative="1" as="geometry">
            <mxPoint x="587.5" y="270" as="sourcePoint" />
            <mxPoint x="787.5" y="270" as="targetPoint" />
            <mxPoint as="offset" />
          </mxGeometry>
        </mxCell>
        <mxCell id="nTin5kN3kxidUM13XaOL-7" value="PlayFabServerAPI" style="shape=umlLifeline;perimeter=lifelinePerimeter;whiteSpace=wrap;html=1;container=0;dropTarget=0;collapsible=0;recursiveResize=0;outlineConnect=0;portConstraint=eastwest;newEdgeStyle={&quot;edgeStyle&quot;:&quot;elbowEdgeStyle&quot;,&quot;elbow&quot;:&quot;vertical&quot;,&quot;curved&quot;:0,&quot;rounded&quot;:0};labelBackgroundColor=none;rounded=1;" parent="1" vertex="1">
          <mxGeometry x="1120" y="120" width="110" height="450" as="geometry" />
        </mxCell>
        <mxCell id="nTin5kN3kxidUM13XaOL-8" value="" style="html=1;points=[];perimeter=orthogonalPerimeter;outlineConnect=0;targetShapes=umlLifeline;portConstraint=eastwest;newEdgeStyle={&quot;edgeStyle&quot;:&quot;elbowEdgeStyle&quot;,&quot;elbow&quot;:&quot;vertical&quot;,&quot;curved&quot;:0,&quot;rounded&quot;:0};labelBackgroundColor=none;rounded=1;" parent="nTin5kN3kxidUM13XaOL-7" vertex="1">
          <mxGeometry x="50" y="150" width="10" height="190" as="geometry" />
        </mxCell>
        <mxCell id="pRTaHTDcilZrjx9ZeTop-6" value="" style="html=1;points=[];perimeter=orthogonalPerimeter;outlineConnect=0;targetShapes=umlLifeline;portConstraint=eastwest;newEdgeStyle={&quot;edgeStyle&quot;:&quot;elbowEdgeStyle&quot;,&quot;elbow&quot;:&quot;vertical&quot;,&quot;curved&quot;:0,&quot;rounded&quot;:0};labelBackgroundColor=none;rounded=1;" parent="nTin5kN3kxidUM13XaOL-7" vertex="1">
          <mxGeometry x="50" y="350" width="10" height="60" as="geometry" />
        </mxCell>
        <mxCell id="nTin5kN3kxidUM13XaOL-9" value="GetDailyRewardTable()" style="html=1;verticalAlign=bottom;endArrow=block;curved=0;rounded=1;" parent="1" source="pRTaHTDcilZrjx9ZeTop-17" edge="1">
          <mxGeometry width="80" relative="1" as="geometry">
            <mxPoint x="960" y="280" as="sourcePoint" />
            <mxPoint x="1170" y="280" as="targetPoint" />
          </mxGeometry>
        </mxCell>
        <mxCell id="pRTaHTDcilZrjx9ZeTop-8" value="PlayFab" style="shape=umlLifeline;perimeter=lifelinePerimeter;whiteSpace=wrap;html=1;container=0;dropTarget=0;collapsible=0;recursiveResize=0;outlineConnect=0;portConstraint=eastwest;newEdgeStyle={&quot;edgeStyle&quot;:&quot;elbowEdgeStyle&quot;,&quot;elbow&quot;:&quot;vertical&quot;,&quot;curved&quot;:0,&quot;rounded&quot;:0};labelBackgroundColor=none;rounded=1;" parent="1" vertex="1">
          <mxGeometry x="1360" y="120" width="110" height="450" as="geometry" />
        </mxCell>
        <mxCell id="pRTaHTDcilZrjx9ZeTop-9" value="" style="html=1;points=[];perimeter=orthogonalPerimeter;outlineConnect=0;targetShapes=umlLifeline;portConstraint=eastwest;newEdgeStyle={&quot;edgeStyle&quot;:&quot;elbowEdgeStyle&quot;,&quot;elbow&quot;:&quot;vertical&quot;,&quot;curved&quot;:0,&quot;rounded&quot;:0};labelBackgroundColor=none;rounded=1;" parent="pRTaHTDcilZrjx9ZeTop-8" vertex="1">
          <mxGeometry x="50" y="160" width="10" height="240" as="geometry" />
        </mxCell>
        <mxCell id="pRTaHTDcilZrjx9ZeTop-11" value="GetTitleReadOnlyDataAsync()" style="html=1;verticalAlign=bottom;endArrow=block;curved=0;rounded=1;" parent="1" edge="1">
          <mxGeometry x="0.0435" width="80" relative="1" as="geometry">
            <mxPoint x="1180" y="290" as="sourcePoint" />
            <mxPoint x="1410" y="290" as="targetPoint" />
            <mxPoint y="1" as="offset" />
          </mxGeometry>
        </mxCell>
        <mxCell id="pRTaHTDcilZrjx9ZeTop-12" value="DailyRewardTable" style="html=1;verticalAlign=bottom;endArrow=block;edgeStyle=elbowEdgeStyle;elbow=vertical;curved=0;rounded=1;labelBackgroundColor=none;fontColor=default;dashed=1;" parent="1" source="pRTaHTDcilZrjx9ZeTop-9" target="nTin5kN3kxidUM13XaOL-8" edge="1">
          <mxGeometry x="-0.0651" relative="1" as="geometry">
            <mxPoint x="1385" y="320" as="sourcePoint" />
            <Array as="points">
              <mxPoint x="1300" y="320" />
            </Array>
            <mxPoint x="1210" y="320" as="targetPoint" />
            <mxPoint as="offset" />
          </mxGeometry>
        </mxCell>
        <mxCell id="pRTaHTDcilZrjx9ZeTop-13" value="GetUserReadOnlyDataAsync()" style="html=1;verticalAlign=bottom;endArrow=block;curved=0;rounded=1;" parent="1" edge="1">
          <mxGeometry x="0.0435" width="80" relative="1" as="geometry">
            <mxPoint x="1180" y="350" as="sourcePoint" />
            <mxPoint x="1410" y="350" as="targetPoint" />
            <mxPoint y="1" as="offset" />
          </mxGeometry>
        </mxCell>
        <mxCell id="pRTaHTDcilZrjx9ZeTop-14" value="DailyRewardIndex" style="html=1;verticalAlign=bottom;endArrow=block;edgeStyle=elbowEdgeStyle;elbow=horizontal;curved=0;rounded=1;labelBackgroundColor=none;fontColor=default;dashed=1;" parent="1" edge="1">
          <mxGeometry x="-0.0651" relative="1" as="geometry">
            <mxPoint x="1410" y="380" as="sourcePoint" />
            <Array as="points">
              <mxPoint x="1300" y="380" />
            </Array>
            <mxPoint x="1180" y="380" as="targetPoint" />
            <mxPoint as="offset" />
          </mxGeometry>
        </mxCell>
        <mxCell id="pRTaHTDcilZrjx9ZeTop-15" value="NextRewardClaimTime" style="html=1;verticalAlign=bottom;endArrow=block;edgeStyle=elbowEdgeStyle;elbow=vertical;curved=0;rounded=1;labelBackgroundColor=none;fontColor=default;dashed=1;" parent="1" source="pRTaHTDcilZrjx9ZeTop-17" edge="1">
          <mxGeometry x="-0.0823" relative="1" as="geometry">
            <mxPoint x="805" y="430" as="sourcePoint" />
            <Array as="points">
              <mxPoint x="690" y="430" />
            </Array>
            <mxPoint x="387.5" y="430" as="targetPoint" />
            <mxPoint as="offset" />
          </mxGeometry>
        </mxCell>
        <mxCell id="pRTaHTDcilZrjx9ZeTop-16" value="DailyReward(BackEnd)" style="shape=umlLifeline;perimeter=lifelinePerimeter;whiteSpace=wrap;html=1;container=0;dropTarget=0;collapsible=0;recursiveResize=0;outlineConnect=0;portConstraint=eastwest;newEdgeStyle={&quot;edgeStyle&quot;:&quot;elbowEdgeStyle&quot;,&quot;elbow&quot;:&quot;vertical&quot;,&quot;curved&quot;:0,&quot;rounded&quot;:0};labelBackgroundColor=none;rounded=1;" parent="1" vertex="1">
          <mxGeometry x="900" y="120" width="140" height="450" as="geometry" />
        </mxCell>
        <mxCell id="pRTaHTDcilZrjx9ZeTop-17" value="" style="html=1;points=[];perimeter=orthogonalPerimeter;outlineConnect=0;targetShapes=umlLifeline;portConstraint=eastwest;newEdgeStyle={&quot;edgeStyle&quot;:&quot;elbowEdgeStyle&quot;,&quot;elbow&quot;:&quot;vertical&quot;,&quot;curved&quot;:0,&quot;rounded&quot;:0};labelBackgroundColor=none;rounded=1;" parent="pRTaHTDcilZrjx9ZeTop-16" vertex="1">
          <mxGeometry x="65" y="130" width="10" height="220" as="geometry" />
        </mxCell>
        <mxCell id="pRTaHTDcilZrjx9ZeTop-34" value="" style="html=1;points=[];perimeter=orthogonalPerimeter;outlineConnect=0;targetShapes=umlLifeline;portConstraint=eastwest;newEdgeStyle={&quot;edgeStyle&quot;:&quot;elbowEdgeStyle&quot;,&quot;elbow&quot;:&quot;vertical&quot;,&quot;curved&quot;:0,&quot;rounded&quot;:0};labelBackgroundColor=none;rounded=1;" parent="pRTaHTDcilZrjx9ZeTop-16" vertex="1">
          <mxGeometry x="65" y="370" width="10" height="50" as="geometry" />
        </mxCell>
        <mxCell id="pRTaHTDcilZrjx9ZeTop-18" value="UpdateUserReadOnlyDataAsync()" style="html=1;verticalAlign=bottom;endArrow=block;curved=0;rounded=1;" parent="1" edge="1">
          <mxGeometry x="0.0435" width="80" relative="1" as="geometry">
            <mxPoint x="1180" y="430" as="sourcePoint" />
            <mxPoint x="1410" y="430" as="targetPoint" />
            <mxPoint y="1" as="offset" />
          </mxGeometry>
        </mxCell>
        <mxCell id="pRTaHTDcilZrjx9ZeTop-20" value="GetDailyRewardIndex()" style="html=1;verticalAlign=bottom;endArrow=block;curved=0;rounded=1;" parent="1" edge="1">
          <mxGeometry width="80" relative="1" as="geometry">
            <mxPoint x="975" y="340" as="sourcePoint" />
            <mxPoint x="1170" y="340" as="targetPoint" />
          </mxGeometry>
        </mxCell>
        <mxCell id="pRTaHTDcilZrjx9ZeTop-21" value="UpdateRewardClaimTime()" style="html=1;verticalAlign=bottom;endArrow=block;curved=0;rounded=1;" parent="1" edge="1">
          <mxGeometry width="80" relative="1" as="geometry">
            <mxPoint x="975" y="420" as="sourcePoint" />
            <mxPoint x="1170" y="420" as="targetPoint" />
          </mxGeometry>
        </mxCell>
        <mxCell id="pRTaHTDcilZrjx9ZeTop-23" value="NextRewardClaimTime" style="html=1;verticalAlign=bottom;endArrow=block;edgeStyle=elbowEdgeStyle;elbow=horizontal;curved=0;rounded=1;labelBackgroundColor=none;fontColor=default;dashed=1;" parent="1" edge="1">
          <mxGeometry x="-0.0651" relative="1" as="geometry">
            <mxPoint x="377.5" y="440" as="sourcePoint" />
            <Array as="points">
              <mxPoint x="270" y="440" />
            </Array>
            <mxPoint x="185" y="440" as="targetPoint" />
            <mxPoint as="offset" />
          </mxGeometry>
        </mxCell>
        <mxCell id="pRTaHTDcilZrjx9ZeTop-24" value="UpdateDailyRewardIndex()" style="html=1;verticalAlign=bottom;endArrow=block;curved=0;rounded=1;" parent="1" edge="1">
          <mxGeometry width="80" relative="1" as="geometry">
            <mxPoint x="975" y="389.5" as="sourcePoint" />
            <mxPoint x="1170" y="389.5" as="targetPoint" />
          </mxGeometry>
        </mxCell>
        <mxCell id="pRTaHTDcilZrjx9ZeTop-26" value="ClaimDailyReward" style="shape=umlFrame;whiteSpace=wrap;html=1;pointerEvents=0;labelBackgroundColor=none;rounded=1;width=120;height=20;" parent="1" vertex="1">
          <mxGeometry x="950" y="230" width="240" height="220" as="geometry" />
        </mxCell>
        <mxCell id="pRTaHTDcilZrjx9ZeTop-27" value="OnRequestSuccess" style="shape=umlFrame;whiteSpace=wrap;html=1;pointerEvents=0;labelBackgroundColor=none;rounded=1;width=120;height=25;" parent="1" vertex="1">
          <mxGeometry x="1160" y="245" width="270" height="215" as="geometry" />
        </mxCell>
        <mxCell id="pRTaHTDcilZrjx9ZeTop-35" value="Exception" style="html=1;verticalAlign=bottom;endArrow=block;edgeStyle=elbowEdgeStyle;elbow=horizontal;curved=0;rounded=1;labelBackgroundColor=none;fontColor=default;dashed=1;" parent="1" source="pRTaHTDcilZrjx9ZeTop-34" target="pRTaHTDcilZrjx9ZeTop-40" edge="1">
          <mxGeometry x="-0.0651" relative="1" as="geometry">
            <mxPoint x="785" y="510" as="sourcePoint" />
            <Array as="points">
              <mxPoint x="870" y="520" />
            </Array>
            <mxPoint x="810" y="520" as="targetPoint" />
            <mxPoint as="offset" />
          </mxGeometry>
        </mxCell>
        <mxCell id="pRTaHTDcilZrjx9ZeTop-39" value="PlayFabErrorHandler" style="shape=umlLifeline;perimeter=lifelinePerimeter;whiteSpace=wrap;html=1;container=0;dropTarget=0;collapsible=0;recursiveResize=0;outlineConnect=0;portConstraint=eastwest;newEdgeStyle={&quot;edgeStyle&quot;:&quot;elbowEdgeStyle&quot;,&quot;elbow&quot;:&quot;vertical&quot;,&quot;curved&quot;:0,&quot;rounded&quot;:0};labelBackgroundColor=none;rounded=1;" parent="1" vertex="1">
          <mxGeometry x="710" y="120" width="130" height="480" as="geometry" />
        </mxCell>
        <mxCell id="pRTaHTDcilZrjx9ZeTop-40" value="" style="html=1;points=[];perimeter=orthogonalPerimeter;outlineConnect=0;targetShapes=umlLifeline;portConstraint=eastwest;newEdgeStyle={&quot;edgeStyle&quot;:&quot;elbowEdgeStyle&quot;,&quot;elbow&quot;:&quot;vertical&quot;,&quot;curved&quot;:0,&quot;rounded&quot;:0};labelBackgroundColor=none;rounded=1;" parent="pRTaHTDcilZrjx9ZeTop-39" vertex="1">
          <mxGeometry x="60" y="380" width="10" height="40" as="geometry" />
        </mxCell>
        <mxCell id="pRTaHTDcilZrjx9ZeTop-42" value="Error Message" style="html=1;verticalAlign=bottom;endArrow=block;edgeStyle=elbowEdgeStyle;elbow=horizontal;curved=0;rounded=1;labelBackgroundColor=none;fontColor=default;dashed=1;" parent="1" source="pRTaHTDcilZrjx9ZeTop-40" edge="1">
          <mxGeometry x="-0.0651" relative="1" as="geometry">
            <mxPoint x="575" y="530" as="sourcePoint" />
            <Array as="points">
              <mxPoint x="480" y="530" />
            </Array>
            <mxPoint x="390" y="530" as="targetPoint" />
            <mxPoint as="offset" />
          </mxGeometry>
        </mxCell>
        <mxCell id="pRTaHTDcilZrjx9ZeTop-44" value="Error Message" style="html=1;verticalAlign=bottom;endArrow=block;edgeStyle=elbowEdgeStyle;elbow=horizontal;curved=0;rounded=1;labelBackgroundColor=none;fontColor=default;dashed=1;" parent="1" source="pRTaHTDcilZrjx9ZeTop-41" target="pRTaHTDcilZrjx9ZeTop-43" edge="1">
          <mxGeometry x="-0.0651" relative="1" as="geometry">
            <mxPoint x="372.5" y="540" as="sourcePoint" />
            <Array as="points">
              <mxPoint x="265" y="540" />
            </Array>
            <mxPoint x="180" y="540" as="targetPoint" />
            <mxPoint as="offset" />
          </mxGeometry>
        </mxCell>
        <mxCell id="pRTaHTDcilZrjx9ZeTop-46" value="Does error message need to go through any Manager / Handler / Controller before going to the view?" style="shape=note;whiteSpace=wrap;html=1;backgroundOutline=1;fontColor=#000000;darkOpacity=0.05;fillColor=#FFF9B2;strokeColor=none;fillStyle=solid;direction=west;gradientDirection=north;gradientColor=#FFF2A1;shadow=1;size=20;pointerEvents=1;rounded=1;" parent="1" vertex="1">
          <mxGeometry x="420" y="640" width="140" height="160" as="geometry" />
        </mxCell>
        <mxCell id="pRTaHTDcilZrjx9ZeTop-48" value="Daily Reward" style="swimlane;whiteSpace=wrap;html=1;rounded=1;" parent="1" vertex="1">
          <mxGeometry x="110" y="80" width="1390" height="550" as="geometry" />
        </mxCell>
        <mxCell id="pRTaHTDcilZrjx9ZeTop-49" value="GrantItemsToUserAsync()" style="html=1;verticalAlign=bottom;endArrow=block;curved=0;rounded=1;" parent="pRTaHTDcilZrjx9ZeTop-48" edge="1">
          <mxGeometry x="0.0435" width="80" relative="1" as="geometry">
            <mxPoint x="1070" y="370" as="sourcePoint" />
            <mxPoint x="1300" y="370" as="targetPoint" />
            <mxPoint y="1" as="offset" />
          </mxGeometry>
        </mxCell>
        <mxCell id="pRTaHTDcilZrjx9ZeTop-28" value="OnRequestFail" style="shape=umlFrame;whiteSpace=wrap;html=1;pointerEvents=0;labelBackgroundColor=none;rounded=1;width=120;height=25;" parent="pRTaHTDcilZrjx9ZeTop-48" vertex="1">
          <mxGeometry x="1050" y="380" width="270" height="70" as="geometry" />
        </mxCell>
        <mxCell id="pRTaHTDcilZrjx9ZeTop-29" value="PlayFabError" style="html=1;verticalAlign=bottom;endArrow=block;edgeStyle=elbowEdgeStyle;elbow=horizontal;curved=0;rounded=1;labelBackgroundColor=none;fontColor=default;dashed=1;" parent="pRTaHTDcilZrjx9ZeTop-48" edge="1">
          <mxGeometry x="-0.0651" relative="1" as="geometry">
            <mxPoint x="1300" y="425" as="sourcePoint" />
            <Array as="points">
              <mxPoint x="1190" y="425" />
            </Array>
            <mxPoint x="1070" y="425" as="targetPoint" />
            <mxPoint as="offset" />
          </mxGeometry>
        </mxCell>
        <mxCell id="pRTaHTDcilZrjx9ZeTop-30" value="PlayFabError" style="html=1;verticalAlign=bottom;endArrow=block;edgeStyle=elbowEdgeStyle;elbow=horizontal;curved=0;rounded=1;labelBackgroundColor=none;fontColor=default;dashed=1;" parent="pRTaHTDcilZrjx9ZeTop-48" edge="1">
          <mxGeometry x="-0.0651" relative="1" as="geometry">
            <mxPoint x="1060" y="430" as="sourcePoint" />
            <Array as="points">
              <mxPoint x="950" y="430" />
            </Array>
            <mxPoint x="865" y="429.9999999999998" as="targetPoint" />
            <mxPoint as="offset" />
          </mxGeometry>
        </mxCell>
      </root>
    </mxGraphModel>
  </diagram>
  <diagram id="gyn53gnpcuzi3JvU5wBQ" name="DailyRewardListCycle">
    <mxGraphModel dx="1262" dy="665" grid="1" gridSize="10" guides="1" tooltips="1" connect="1" arrows="1" fold="1" page="1" pageScale="1" pageWidth="850" pageHeight="1100" math="0" shadow="0">
      <root>
        <mxCell id="0" />
        <mxCell id="1" parent="0" />
        <mxCell id="EtEtoeHo-N_qxZ-Vhdqn-2" style="edgeStyle=orthogonalEdgeStyle;rounded=1;orthogonalLoop=1;jettySize=auto;html=1;exitX=1;exitY=0.5;exitDx=0;exitDy=0;" edge="1" parent="1" source="EtEtoeHo-N_qxZ-Vhdqn-1">
          <mxGeometry relative="1" as="geometry">
            <mxPoint x="320" y="280" as="targetPoint" />
          </mxGeometry>
        </mxCell>
        <mxCell id="EtEtoeHo-N_qxZ-Vhdqn-1" value="Store/Bundle (Hidden)" style="rounded=1;whiteSpace=wrap;html=1;" vertex="1" parent="1">
          <mxGeometry x="70" y="250" width="120" height="60" as="geometry" />
        </mxCell>
        <mxCell id="EtEtoeHo-N_qxZ-Vhdqn-4" style="edgeStyle=orthogonalEdgeStyle;rounded=1;orthogonalLoop=1;jettySize=auto;html=1;exitX=1;exitY=0.5;exitDx=0;exitDy=0;" edge="1" parent="1" source="EtEtoeHo-N_qxZ-Vhdqn-3">
          <mxGeometry relative="1" as="geometry">
            <mxPoint x="570" y="280" as="targetPoint" />
          </mxGeometry>
        </mxCell>
        <mxCell id="EtEtoeHo-N_qxZ-Vhdqn-3" value="Azure Function" style="rounded=1;whiteSpace=wrap;html=1;" vertex="1" parent="1">
          <mxGeometry x="320" y="250" width="120" height="60" as="geometry" />
        </mxCell>
        <mxCell id="EtEtoeHo-N_qxZ-Vhdqn-5" value="Auto Trigger Every Month" style="text;html=1;align=center;verticalAlign=middle;whiteSpace=wrap;rounded=0;" vertex="1" parent="1">
          <mxGeometry x="350" y="190" width="60" height="30" as="geometry" />
        </mxCell>
        <mxCell id="EtEtoeHo-N_qxZ-Vhdqn-6" value="Item data for Daily Reward List" style="text;html=1;align=center;verticalAlign=middle;whiteSpace=wrap;rounded=0;" vertex="1" parent="1">
          <mxGeometry x="470" y="230" width="60" height="30" as="geometry" />
        </mxCell>
        <mxCell id="EtEtoeHo-N_qxZ-Vhdqn-8" value="Title Read Only Data" style="rounded=1;whiteSpace=wrap;html=1;" vertex="1" parent="1">
          <mxGeometry x="570" y="250" width="120" height="60" as="geometry" />
        </mxCell>
        <mxCell id="qxj9NH52-9L56vq5V2PG-2" value="Daily Reward Cycle (Over-Engineering Edition)" style="swimlane;whiteSpace=wrap;html=1;rounded=1;" vertex="1" parent="1">
          <mxGeometry x="30" y="130" width="710" height="280" as="geometry" />
        </mxCell>
      </root>
    </mxGraphModel>
  </diagram>
</mxfile>
